<svg xmlns="http://www.w3.org/2000/svg" version="1.1" xmlns:xlink="http://www.w3.org/1999/xlink" xmlns:svgjs="http://svgjs.dev/svgjs" width="1000" height="1000"><style>
    #light-icon {
      display: inline;
    }
    #dark-icon {
      display: none;
    }

    @media (prefers-color-scheme: dark) {
      #light-icon {
        display: none;
      }
      #dark-icon {
        display: inline;
      }
    }
  </style><g id="light-icon"><svg xmlns="http://www.w3.org/2000/svg" version="1.1" xmlns:xlink="http://www.w3.org/1999/xlink" xmlns:svgjs="http://svgjs.dev/svgjs" width="1000" height="1000"><g clip-path="url(#SvgjsClipPath1042)"><rect width="1000" height="1000" fill="#ffffff"></rect><g transform="matrix(1.7578125,0,0,1.7578125,50,50)"><svg xmlns="http://www.w3.org/2000/svg" version="1.1" xmlns:xlink="http://www.w3.org/1999/xlink" xmlns:svgjs="http://svgjs.dev/svgjs" width="512" height="512"><svg width="512" height="512" viewBox="0 0 512 512" fill="none" xmlns="http://www.w3.org/2000/svg">
<path d="M427.31 395.4H371.7C371.53 395.4 371.01 394.35 370.24 392.55H2.02002V395.55H460.79V395.4H427.31Z" fill="#078C03"></path>
<path d="M370.23 392.54C371 394.34 371.52 395.39 371.69 395.39H460.78V392.54H370.23Z" fill="#078C03"></path>
<path d="M451.4 383.61H458.98V380.61H443.61C445.88 381.51 447.93 382.32 449.39 382.88C450.05 383.13 450.72 383.37 451.39 383.61H451.4Z" fill="#078C03"></path>
<path d="M2.01001 380.61V383.61H366.68C366.31 382.65 365.92 381.64 365.53 380.61H2.01001Z" fill="#078C03"></path>
<path d="M2.01001 368.68V371.68H362.13L360.99 368.68H2.01001Z" fill="#078C03"></path>
<path d="M387.37 368.68C387.77 369.75 388.29 370.76 388.94 371.68H400.23L399.09 368.68H387.37Z" fill="#078C03"></path>
<path d="M457.18 371.68V368.68H425.46C425.86 369.75 426.38 370.76 427.03 371.68H457.18Z" fill="#078C03"></path>
<path d="M394.53 356.75H384.13C384.4 357.79 384.67 358.79 384.93 359.75H395.69C395.3 358.73 394.91 357.73 394.53 356.75Z" fill="#078C03"></path>
<path d="M2.01001 356.75V359.75H357.59C357.2 358.73 356.81 357.73 356.43 356.75H2.01001Z" fill="#078C03"></path>
<path d="M455.38 359.75V356.75H422.22C422.49 357.78 422.76 358.79 423.02 359.75H455.38Z" fill="#078C03"></path>
<path d="M453.58 347.82V344.82H419.06C419.33 345.83 419.59 346.84 419.86 347.82H453.58Z" fill="#078C03"></path>
<path d="M389.7 344.82H380.97C381.24 345.84 381.5 346.84 381.77 347.82H390.98C390.52 346.71 390.09 345.7 389.71 344.82H389.7Z" fill="#078C03"></path>
<path d="M2.01001 344.82V347.82H352.88C352.42 346.71 351.99 345.7 351.61 344.82H2.01001Z" fill="#078C03"></path>
<path d="M451.78 335.89V332.89H415.9C416.17 333.9 416.43 334.9 416.7 335.89H451.78Z" fill="#078C03"></path>
<path d="M108.65 332.89C106.19 333.91 103.77 334.92 101.45 335.89H346.38C345.8 334.92 345.2 333.91 344.62 332.89H108.65Z" fill="#078C03"></path>
<path d="M382.71 332.89H377.81C378.08 333.9 378.34 334.9 378.61 335.89H384.48C383.9 334.92 383.3 333.91 382.72 332.89H382.71Z" fill="#078C03"></path>
<path d="M375.44 323.96H378.19C377.9 323.08 377.6 322.06 377.29 320.96H374.65C374.91 321.96 375.18 322.96 375.44 323.96Z" fill="#078C03"></path>
<path d="M339.19 320.96H138.05C137.65 321.01 137.37 321.07 137.22 321.13C136.89 321.25 134.23 322.34 130.27 323.96H340.09C339.8 323.08 339.5 322.06 339.19 320.96Z" fill="#078C03"></path>
<path d="M449.98 323.96V320.96H412.74C413 321.96 413.27 322.96 413.53 323.96H449.98Z" fill="#078C03"></path>
<path d="M448.17 312.02V309.02H409.57C409.83 310.01 410.1 311.01 410.36 312.02H448.17Z" fill="#078C03"></path>
<path d="M336.48 309.02H244.06L241.74 310.47C240.88 311.01 239.99 311.52 239.1 312.02H337.06C336.85 311.02 336.66 310.01 336.47 309.02H336.48Z" fill="#078C03"></path>
<path d="M372.28 312.02H375.17C374.96 311.02 374.77 310.01 374.58 309.02H371.49C371.75 310.01 372.02 311.01 372.28 312.02Z" fill="#078C03"></path>
<path d="M85.61 333.29L86.03 332.89H70.55C68.09 333.91 65.66 334.92 63.35 335.89H84.74V335.3C84.74 334.54 85.05 333.81 85.61 333.29Z" fill="#078C03"></path>
<path d="M47.51 333.29L47.93 332.89H2.01001V335.89H46.64V335.3C46.64 334.54 46.95 333.81 47.51 333.29Z" fill="#078C03"></path>
<path d="M98 321.58C96.81 322.06 94.78 322.89 92.18 323.96H95.48L98 321.58Z" fill="#078C03"></path>
<path d="M2.01001 320.96V323.96H57.39L60.56 320.96H2.01001Z" fill="#078C03"></path>
<path d="M2.01001 309.02V312.02H70C71.06 311.02 72.11 310.02 73.17 309.02H2.01001Z" fill="#078C03"></path>
<path d="M373.21 300.66C372.94 299.57 372.47 298.56 371.86 297.66H368.47C368.73 298.64 368.99 299.64 369.26 300.66H373.21Z" fill="#DA1B1A"></path>
<path d="M446.23 300.66V297.66H406.57C406.83 298.64 407.09 299.64 407.36 300.66H446.23Z" fill="#DA1B1A"></path>
<path d="M333.78 297.66H262.18L257.4 300.66H335.12C334.85 299.57 334.4 298.56 333.78 297.66Z" fill="#DA1B1A"></path>
<path d="M2.01001 285.56V288.56H187.51C188.23 287.7 189.06 286.68 189.99 285.56H2.01001Z" fill="#DA1B1A"></path>
<path d="M434.3 288.56V285.56H403.36C403.61 286.51 403.88 287.51 404.15 288.56H434.3Z" fill="#DA1B1A"></path>
<path d="M300.64 285.56H281.44L276.66 288.56H310.7C307.45 287.59 304.05 286.58 300.64 285.56Z" fill="#DA1B1A"></path>
<path d="M400.85 276.47H422.39V273.47H398.8C399.68 274.33 400.37 275.34 400.85 276.47Z" fill="#DA1B1A"></path>
<path d="M2.01001 273.47V276.47H197.51C198.34 275.47 199.17 274.47 199.99 273.47H2.01001Z" fill="#DA1B1A"></path>
<path d="M410.46 264.38V261.38H381.84C383.31 262.42 384.73 263.42 386.1 264.38H410.46Z" fill="#DA1B1A"></path>
<path d="M2.01001 261.38V264.38H207.5C208.45 263.23 209.29 262.21 209.97 261.38H2H2.01001Z" fill="#DA1B1A"></path>
<path d="M215.98 249.29H2.01001V252.29H215.03C215.33 251.33 215.62 250.37 215.94 249.42C215.95 249.38 215.97 249.33 215.98 249.29Z" fill="#DA1B1A"></path>
<path d="M398.54 252.29V249.29H364.68C366.09 250.28 367.51 251.29 368.94 252.29H398.54Z" fill="#DA1B1A"></path>
<path d="M220.14 237.2H2.01001V240.2H219.04C219.06 240.14 219.08 240.08 219.1 240.02C219.42 239.07 219.77 238.13 220.13 237.2H220.14Z" fill="#DA1B1A"></path>
<path d="M386.62 240.2V237.2H347.52C348.84 238.13 350.27 239.14 351.78 240.2H386.62Z" fill="#DA1B1A"></path>
<path d="M85.47 297.66H2.01001V300.66H81.99C82.76 299.93 83.54 299.2 84.31 298.46C84.67 298.11 85.06 297.85 85.47 297.66Z" fill="#DA1B1A"></path>
<path d="M2.01001 225.11V228.11H224.48C225.06 227.09 225.67 226.09 226.3 225.11H2H2.01001Z" fill="#DA1B1A"></path>
<path d="M374.7 228.11V225.11H340.89C339.58 226.64 338.7 227.68 338.35 228.11H374.7Z" fill="black"></path>
<path d="M362.78 216.02V213.02H351.33C350.44 214.05 349.57 215.05 348.73 216.02H362.78Z" fill="black"></path>
<path d="M236.28 213.02H2.01001V216.02H233.34C234.29 214.99 235.26 213.99 236.27 213.02H236.28Z" fill="black"></path>
<path d="M119.15 201.65V204.65H244.93C245.71 203.77 246.61 202.75 247.59 201.65H119.15Z" fill="black"></path>
<path d="M395.65 204.65V201.65H361.18C360.31 202.65 359.44 203.66 358.58 204.65H395.65Z" fill="black"></path>
<path d="M403.71 192.55V189.55H371.63C370.78 190.53 369.92 191.53 369.04 192.55H403.71Z" fill="black"></path>
<path d="M119.15 189.55V192.55H255.63C256.51 191.56 257.39 190.56 258.28 189.55H119.15Z" fill="black"></path>
<path d="M119.15 177.46V180.46H266.3C267.22 179.42 268.1 178.41 268.94 177.46H119.15Z" fill="black"></path>
<path d="M411.77 180.46V177.46H382.03C381.25 178.38 380.39 179.38 379.46 180.46H411.77Z" fill="black"></path>
<path d="M403.13 168.37H419.83V165.37H406.47C405.62 166.21 404.82 167 404.17 167.65C403.86 167.95 403.5 168.19 403.13 168.37Z" fill="black"></path>
<path d="M204.55 165.37C203.6 165.62 202.66 165.88 201.73 166.11C198.01 166.85 194.47 167.78 190.67 167.97C186.19 168.19 181.74 167.97 177.26 167.97C177.63 167.97 178.67 166.73 178.93 166.49C179.13 166.31 179.64 165.91 180.36 165.36H166.46C165.51 165.61 164.57 165.87 163.64 166.1C159.92 166.84 156.38 167.77 152.58 167.96C148.1 168.18 143.65 167.96 139.17 167.96C139.54 167.96 140.58 166.72 140.84 166.48C141.04 166.3 141.55 165.9 142.26 165.35H119.14V168.35H275.85C274.68 167.65 271.59 166.51 268.15 165.35H204.55V165.37Z" fill="black"></path>
<path d="M391.39 165.37H386.69C386.54 165.52 386.4 165.7 386.3 165.93C386.27 166.01 386.29 167.08 386.27 168.37H399.83C398.07 167.75 395.83 166.97 394.36 166.47C393.75 166.26 392.62 165.77 391.39 165.37Z" fill="black"></path>
<path d="M427.9 156.28V153.28H416.72C416.54 154.28 415.81 155.31 414.99 156.28H427.9Z" fill="black"></path>
<path d="M163.26 153.28H119.15V156.28H154.74C157.17 154.62 159.08 153.42 159.56 153.41C160.12 153.39 161.5 153.34 163.27 153.28H163.26Z" fill="black"></path>
<path d="M435.97 144.19V141.19H419.77C419.08 142.11 418.28 143.14 417.64 144.19H435.97Z" fill="black"></path>
<path d="M259.45 141.62C259.98 141.51 260.71 141.36 261.58 141.19H119.14V144.19H240.11C247.56 143.22 254.89 142.28 257.47 141.95C258.13 141.86 258.78 141.76 259.44 141.62H259.45Z" fill="black"></path>
<path d="M381.94 130.68C382.18 130.17 382.38 129.64 382.54 129.1H381.02C381.34 129.6 381.65 130.12 381.94 130.68Z" fill="black"></path>
<path d="M444.03 132.1V129.1H419.11C419.68 130 420.24 131.02 420.68 132.1H444.03Z" fill="black"></path>
<path d="M119.15 129.1V132.1H343.04C343.64 131.16 344.12 130.15 344.44 129.1H119.14H119.15Z" fill="black"></path>
<path d="M350.5 118.28H372.02C372.92 118.28 373.76 118.72 374.28 119.46L374.66 120H386.69C387.48 119.16 388.34 118.28 388.59 118.28H410.11C411.01 118.28 411.85 118.72 412.37 119.46L412.75 120H452.09V117H119.14V120H348.59C349.38 119.16 350.24 118.28 350.49 118.28H350.5Z" fill="black"></path>
<path d="M410.12 118.28H388.6C388.35 118.28 387.48 119.16 386.7 120H412.77L412.39 119.46C411.87 118.72 411.03 118.28 410.13 118.28H410.12Z" fill="black"></path>
<path d="M374.29 119.46C373.77 118.72 372.93 118.28 372.03 118.28H350.51C350.26 118.28 349.39 119.16 348.61 120H374.68L374.3 119.46H374.29Z" fill="black"></path>
<path d="M348.59 165.37H353.29C351.52 164.79 349.54 164.42 348.59 165.37Z" fill="#333333"></path>
<path d="M250.66 161.47C233.63 162.04 174.8 164.02 172.02 164.27C170.17 164.43 168.3 164.89 166.46 165.38H268.15C265.3 164.42 262.21 163.45 259.76 162.69C256.81 161.78 253.74 161.37 250.65 161.47H250.66Z" fill="#333333"></path>
<path d="M320.48 204.65H244.93C242.86 206.99 241.55 208.45 241.52 208.48C239.69 209.9 237.95 211.42 236.29 213.02H313.24C315.52 210.38 317.98 207.55 320.49 204.65H320.48Z" fill="#333333"></path>
<path d="M238.57 288.56H187.52C186.53 289.76 185.76 290.68 185.34 291.2C184.52 292.19 184.3 292.7 183.11 292.93C182 293.14 155.55 290.73 134.56 295.12C130.05 295.95 95.03 297.18 91.79 297.18C89.64 297.18 87.3601 296.75 85.4901 297.66H224.1L238.59 288.57H238.57V288.56Z" fill="#333333"></path>
<path d="M257.84 276.47H197.52C194.82 279.74 192.17 282.94 190 285.56H243.35L257.84 276.47Z" fill="#333333"></path>
<path d="M46.65 338.78C46.65 340.77 48.69 342.11 50.51 341.32C53.57 340 58.17 338.05 63.35 335.89H46.65V338.78Z" fill="#333333"></path>
<path d="M300.64 285.56H365.27C364.41 282.33 363.71 279.66 363.21 277.75C363.09 277.31 362.94 276.88 362.76 276.47H270.13C277.19 278.57 289.02 282.1 300.65 285.56H300.64Z" fill="#333333"></path>
<path d="M339.19 320.96H374.64C373.84 317.95 373.05 314.96 372.27 312.03H337.06C337.72 315.21 338.46 318.35 339.18 320.96H339.19Z" fill="#333333"></path>
<path d="M310.64 216.02H233.35C230.75 218.85 228.39 221.89 226.31 225.11H302.8C304.68 222.92 307.42 219.74 310.64 216.02Z" fill="#333333"></path>
<path d="M335.33 301.75C335.59 303.92 336 306.43 336.48 309.02H371.48C370.72 306.14 369.97 303.34 369.26 300.65H335.11C335.2 301.01 335.28 301.37 335.33 301.75Z" fill="#333333"></path>
<path d="M328.74 293.94C330.85 294.57 332.6 295.91 333.78 297.65H368.47C367.6 294.37 366.79 291.31 366.06 288.56H310.7C317.87 290.7 324.34 292.63 328.73 293.94H328.74Z" fill="#333333"></path>
<path d="M341.22 326.8C342.25 328.7 343.42 330.82 344.61 332.89H377.8C377.02 329.94 376.23 326.95 375.43 323.96H340.08C340.49 325.19 340.87 326.17 341.21 326.8H341.22Z" fill="#333333"></path>
<path d="M172.02 164.26C174.8 164.02 233.63 162.04 250.66 161.46C253.75 161.36 256.81 161.77 259.77 162.68C262.21 163.43 265.31 164.41 268.16 165.37H348.6C349.55 164.42 351.53 164.79 353.3 165.37H368.4C370.87 162.9 373.76 159.97 374.74 158.74C375.3 158.03 376.15 157.18 376.91 156.28H154.75C150.61 159.11 144.96 163.31 142.28 165.37H166.47C168.31 164.88 170.17 164.42 172.03 164.26H172.02Z" fill="#333333"></path>
<path d="M301.77 231.8C300 230.55 299.86 230.4 300.09 228.33C300.09 228.32 300.15 228.24 300.25 228.11H224.47C222.8 231.02 221.35 234.06 220.12 237.2H309.41C306.06 234.84 303.38 232.95 301.75 231.8H301.77Z" fill="#333333"></path>
<path d="M382.55 139.95C384.07 137.59 383.65 134.67 382.59 132.09H343.05C342.01 133.72 340.6 135.12 339.01 136.04C337.3 137.04 335.6 137.49 333.88 137.61C331.03 137.81 328.13 137.12 324.99 136.57C322.39 136.12 319.81 135.6 317.22 135.07C313.83 134.38 310.37 134.05 306.91 134.06C303.19 134.08 299.85 134.03 296.12 134.12C292.54 134.21 286.79 135.15 283.36 136.19C278.68 137.61 267.14 140.04 261.57 141.18H381.66C381.99 140.74 382.29 140.32 382.53 139.95H382.55Z" fill="#333333"></path>
<path d="M330.85 252.29H215.03C214.26 254.76 213.42 257.18 211.77 259.21C211.47 259.58 210.84 260.34 209.98 261.39H343.75C339.67 258.52 335.26 255.41 330.85 252.3V252.29Z" fill="#333333"></path>
<path d="M313.69 240.2H219.05C217.73 244.11 216.57 247.56 215.98 249.29H326.59C322.02 246.07 317.58 242.94 313.69 240.2Z" fill="#333333"></path>
<path d="M347.55 173.2C348.04 172.61 348.15 170.25 348.17 168.38H275.85C276.22 168.6 276.4 168.78 276.34 168.9C276.25 169.1 273.18 172.62 268.92 177.47H343.93C345.48 175.66 346.72 174.19 347.54 173.2H347.55Z" fill="#333333"></path>
<path d="M380.56 128.4C379.53 126.94 378.51 125.47 377.48 124.01L374.67 120H348.6C347.99 120.66 347.43 121.29 347.24 121.46C345.48 123.16 344.99 124.19 344.89 126.57C344.86 127.42 344.69 128.26 344.44 129.09H381.02C380.87 128.85 380.71 128.62 380.56 128.4Z" fill="#333333"></path>
<path d="M362.17 168.52C363.13 168.86 364.16 168.79 365.04 168.37H361.73C361.88 168.42 362.03 168.47 362.16 168.52H362.17Z" fill="#333333"></path>
<path d="M359.56 272.51C357.02 270.72 352.91 267.82 348.01 264.38H207.51C205.4 266.94 202.75 270.15 200 273.47H360.71C360.36 273.12 359.98 272.8 359.56 272.51Z" fill="#333333"></path>
<path d="M378.65 153.23C378.95 151.43 378.52 149.25 378.44 147.43C378.4 146.4 378.88 145.29 379.55 144.19H240.12C232.81 145.14 225.36 146.12 222.15 146.58C216.42 147.4 191.42 152.32 187.97 152.44C184.33 152.56 180.69 152.68 177.05 152.81C174.29 152.9 167.6 153.14 163.26 153.29H378.63C378.63 153.29 378.64 153.26 378.64 153.24H378.65V153.23Z" fill="#333333"></path>
<path d="M394.67 376.24C392.33 375.29 390.35 373.69 388.93 371.68H362.13C363.3 374.77 364.45 377.81 365.52 380.61H405.52C401.99 379.21 397.93 377.56 394.67 376.24Z" fill="#333333"></path>
<path d="M92.1801 323.96H57.3901L47.9401 332.89H70.5601C78.4501 329.61 86.6001 326.25 92.1801 323.96Z" fill="#333333"></path>
<path d="M429.94 391.9L429.44 390.15C429.4 390 429.33 389.84 429.21 389.73C428.52 389.09 426.9 388.7 426.11 388.36C421.91 386.59 417.59 385.17 413.31 383.61H366.68C368.11 387.31 369.34 390.44 370.23 392.54H430.04C430.04 392.33 430 392.11 429.94 391.89V391.9Z" fill="#333333"></path>
<path d="M386.98 367.51C386.41 365.36 385.71 362.74 384.92 359.75H357.59C358.7 362.64 359.85 365.66 361 368.68H387.37C387.23 368.3 387.09 367.91 386.99 367.51H386.98Z" fill="#333333"></path>
<path d="M381.76 347.82H352.88C353.92 350.35 355.14 353.41 356.43 356.75H384.13C383.4 353.99 382.6 350.99 381.76 347.82Z" fill="#333333"></path>
<path d="M378.6 335.89H346.37C347.58 337.91 348.76 339.76 349.77 341.16C350.17 341.71 350.8 343 351.6 344.82H380.96C380.2 341.94 379.4 338.95 378.59 335.89H378.6Z" fill="#333333"></path>
<path d="M330.95 192.55H255.63C252.7 195.87 249.91 199.02 247.59 201.64H323.08C325.72 198.59 328.39 195.51 330.95 192.55Z" fill="#333333"></path>
<path d="M174.95 318.95C184.09 318.83 193.04 316.43 201.02 312.02H70.0101C69.3701 312.63 68.7301 313.23 68.0901 313.84L60.5701 320.95H99.9701C106.98 319.99 150.99 319.27 174.96 318.95H174.95Z" fill="#333333"></path>
<path d="M219.3 300.66H82C79.06 303.45 76.12 306.24 73.17 309.03H205.97L219.31 300.66H219.3Z" fill="#333333"></path>
<path d="M341.37 180.46H266.29C263.78 183.32 261.02 186.44 258.27 189.55H333.53C336.41 186.22 339.08 183.11 341.36 180.46H341.37Z" fill="#333333"></path>
<path d="M288.75 161.47C271.72 162.04 212.89 164.02 210.11 164.27C208.26 164.43 206.39 164.89 204.55 165.38H306.24C303.39 164.42 300.3 163.45 297.85 162.69C294.9 161.78 291.83 161.37 288.74 161.47H288.75Z" fill="#1A1A1A"></path>
<path d="M386.68 165.37H391.38C389.61 164.79 387.63 164.42 386.68 165.37Z" fill="#1A1A1A"></path>
<path d="M397.65 272.51C395.11 270.72 391 267.82 386.1 264.38H245.6C243.49 266.94 240.84 270.15 238.09 273.47H398.8C398.45 273.12 398.07 272.8 397.65 272.51Z" fill="#1A1A1A"></path>
<path d="M377.29 320.96H412.74C411.94 317.95 411.15 314.96 410.37 312.03H375.16C375.82 315.21 376.56 318.35 377.28 320.96H377.29Z" fill="#1A1A1A"></path>
<path d="M379.31 326.8C380.34 328.7 381.51 330.82 382.7 332.89H415.89C415.11 329.94 414.32 326.95 413.52 323.96H378.17C378.58 325.19 378.96 326.17 379.3 326.8H379.31Z" fill="#1A1A1A"></path>
<path d="M366.83 293.94C368.94 294.57 370.69 295.91 371.87 297.65H406.56C405.69 294.37 404.88 291.31 404.15 288.56H348.79C355.96 290.7 362.43 292.63 366.82 293.94H366.83Z" fill="#1A1A1A"></path>
<path d="M338.74 285.56H403.37C402.51 282.33 401.81 279.66 401.31 277.75C401.19 277.31 401.04 276.88 400.86 276.47H308.23C315.29 278.57 327.12 282.1 338.75 285.56H338.74Z" fill="#1A1A1A"></path>
<path d="M373.42 301.75C373.68 303.92 374.09 306.43 374.57 309.02H409.57C408.81 306.14 408.06 303.34 407.35 300.65H373.2C373.29 301.01 373.37 301.37 373.42 301.75Z" fill="#1A1A1A"></path>
<path d="M368.94 252.29H253.12C252.35 254.76 251.51 257.18 249.86 259.21C249.56 259.58 248.93 260.34 248.07 261.39H381.84C377.76 258.52 373.35 255.41 368.94 252.3V252.29Z" fill="#1A1A1A"></path>
<path d="M84.74 338.78C84.74 340.77 86.78 342.11 88.6 341.32C91.66 340 96.26 338.05 101.44 335.89H84.74V338.78Z" fill="#1A1A1A"></path>
<path d="M416.74 153.23C417.04 151.43 416.61 149.25 416.53 147.43C416.49 146.4 416.97 145.29 417.64 144.19H278.21C270.9 145.14 263.45 146.12 260.24 146.58C254.51 147.4 229.51 152.32 226.06 152.44C222.42 152.56 218.78 152.68 215.14 152.81C212.38 152.9 205.69 153.14 201.35 153.29H416.72C416.72 153.29 416.73 153.26 416.73 153.24H416.74V153.23Z" fill="#1A1A1A"></path>
<path d="M400.26 168.52C401.22 168.86 402.25 168.79 403.13 168.37H399.82C399.97 168.42 400.12 168.47 400.25 168.52H400.26Z" fill="#1A1A1A"></path>
<path d="M420.64 139.95C422.16 137.59 421.74 134.67 420.68 132.09H381.14C380.1 133.72 378.69 135.12 377.1 136.04C375.39 137.04 373.69 137.49 371.97 137.61C369.12 137.81 366.22 137.12 363.08 136.57C360.48 136.12 357.9 135.6 355.31 135.07C351.92 134.38 348.46 134.05 345 134.06C341.28 134.08 337.94 134.03 334.21 134.12C330.63 134.21 324.88 135.15 321.45 136.19C316.77 137.61 305.23 140.04 299.66 141.18H419.75C420.08 140.74 420.38 140.32 420.62 139.95H420.64Z" fill="#1A1A1A"></path>
<path d="M295.93 276.47H235.61C232.91 279.74 230.26 282.94 228.09 285.56H281.44L295.93 276.47Z" fill="#1A1A1A"></path>
<path d="M418.65 128.4C417.62 126.94 416.6 125.47 415.57 124.01L412.76 120H386.69C386.08 120.66 385.52 121.29 385.33 121.46C383.57 123.16 383.08 124.19 382.98 126.57C382.95 127.42 382.78 128.26 382.53 129.09H419.11C418.96 128.85 418.8 128.62 418.65 128.4Z" fill="#1A1A1A"></path>
<path d="M210.11 164.26C212.89 164.02 271.72 162.04 288.75 161.46C291.84 161.36 294.9 161.77 297.86 162.68C300.3 163.43 303.4 164.41 306.25 165.37H386.69C387.64 164.42 389.62 164.79 391.39 165.37H406.49C408.96 162.9 411.85 159.97 412.83 158.74C413.39 158.03 414.24 157.18 415 156.28H192.84C188.7 159.11 183.05 163.31 180.37 165.37H204.56C206.4 164.88 208.26 164.42 210.12 164.26H210.11Z" fill="#1A1A1A"></path>
<path d="M369.04 192.55H293.72C290.79 195.87 288 199.02 285.68 201.64H361.17C363.81 198.59 366.48 195.51 369.04 192.55Z" fill="#1A1A1A"></path>
<path d="M348.73 216.02H271.44C268.84 218.85 266.48 221.89 264.4 225.11H340.89C342.77 222.92 345.51 219.74 348.73 216.02Z" fill="#1A1A1A"></path>
<path d="M339.87 231.8C338.1 230.55 337.96 230.4 338.19 228.33C338.19 228.32 338.25 228.24 338.35 228.11H262.57C260.9 231.02 259.45 234.06 258.22 237.2H347.51C344.16 234.84 341.48 232.95 339.85 231.8H339.87Z" fill="#1A1A1A"></path>
<path d="M351.78 240.2H257.14C255.82 244.11 254.66 247.56 254.07 249.29H364.68C360.11 246.07 355.67 242.94 351.78 240.2Z" fill="#1A1A1A"></path>
<path d="M385.64 173.2C386.13 172.61 386.24 170.25 386.26 168.38H313.94C314.31 168.6 314.49 168.78 314.43 168.9C314.34 169.1 311.27 172.62 307.01 177.47H382.02C383.57 175.66 384.81 174.19 385.63 173.2H385.64Z" fill="#1A1A1A"></path>
<path d="M358.57 204.65H283.02C280.95 206.99 279.64 208.45 279.61 208.48C277.78 209.9 276.04 211.42 274.38 213.02H351.33C353.61 210.38 356.07 207.55 358.58 204.65H358.57Z" fill="#1A1A1A"></path>
<path d="M379.46 180.46H304.38C301.87 183.32 299.11 186.44 296.36 189.55H371.62C374.5 186.22 377.17 183.11 379.45 180.46H379.46Z" fill="#1A1A1A"></path>
<path d="M257.4 300.66H120.1C117.16 303.45 114.22 306.24 111.27 309.03H244.07L257.41 300.66H257.4Z" fill="#1A1A1A"></path>
<path d="M416.69 335.89H384.46C385.67 337.91 386.85 339.76 387.86 341.16C388.26 341.71 388.89 343 389.69 344.82H419.05C418.29 341.94 417.49 338.95 416.68 335.89H416.69Z" fill="#1A1A1A"></path>
<path d="M468.04 391.9L467.54 390.15C467.5 390 467.43 389.84 467.31 389.73C466.62 389.09 465 388.7 464.21 388.36C460.01 386.59 455.69 385.17 451.41 383.61H404.78C406.21 387.31 407.44 390.44 408.33 392.54H460.79V395.39H465.41C467.23 395.39 468.55 393.64 468.04 391.89V391.9Z" fill="#1A1A1A"></path>
<path d="M130.27 323.96H95.48L86.03 332.89H108.65C116.54 329.61 124.69 326.25 130.27 323.96Z" fill="#1A1A1A"></path>
<path d="M213.04 318.95C222.18 318.83 231.13 316.43 239.11 312.02H108.1C107.46 312.63 106.82 313.23 106.18 313.84L98.66 320.95H138.06C145.07 319.99 189.08 319.27 213.05 318.95H213.04Z" fill="#1A1A1A"></path>
<path d="M419.86 347.82H390.98C392.02 350.35 393.24 353.41 394.53 356.75H422.23C421.5 353.99 420.7 350.99 419.86 347.82Z" fill="#1A1A1A"></path>
<path d="M276.66 288.56H225.61C224.62 289.76 223.85 290.68 223.43 291.2C222.61 292.19 222.39 292.7 221.2 292.93C220.09 293.14 193.64 290.73 172.65 295.12C168.14 295.95 133.12 297.18 129.88 297.18C127.73 297.18 125.45 296.75 123.58 297.66H262.19L276.68 288.57H276.66V288.56Z" fill="#1A1A1A"></path>
<path d="M432.77 376.24C430.43 375.29 428.45 373.69 427.03 371.68H400.23C401.4 374.77 402.55 377.81 403.62 380.61H443.62C440.09 379.21 436.03 377.56 432.77 376.24Z" fill="#1A1A1A"></path>
<path d="M425.08 367.51C424.51 365.36 423.81 362.74 423.02 359.75H395.69C396.8 362.64 397.95 365.66 399.1 368.68H425.47C425.33 368.3 425.19 367.91 425.09 367.51H425.08Z" fill="#1A1A1A"></path>
<path d="M413.02 136.42C414.75 136.3 416.45 135.85 418.17 134.84C421.4 132.95 423.92 129.12 424.07 125.33C424.17 122.94 424.65 121.9 426.43 120.2C426.84 119.8 429.26 117.01 429.71 117.01H451.33C452.23 117.01 453.08 117.45 453.6 118.2L456.8 122.77C457.83 124.24 458.86 125.71 459.89 127.18C462.01 130.19 464.22 135.15 461.89 138.78C460.61 140.78 457.66 143.81 457.76 146.29C457.84 148.12 458.26 150.31 457.97 152.12C457.65 154.06 455.22 156.16 454.03 157.65C452.71 159.31 447.94 164.06 445.35 166.61C444.32 167.63 442.79 167.97 441.41 167.48C439.59 166.84 437.07 165.95 435.47 165.42C433.83 164.87 428.47 162.25 427.37 164.88C427.29 165.08 427.55 171.18 426.72 172.18C419.38 181.02 379.09 227.21 379.05 227.56C378.82 229.64 378.95 229.79 380.73 231.05C389.4 237.18 428.02 264.37 438.78 271.96C440.59 273.24 441.87 275.09 442.45 277.22C446.22 291.5 461.28 348.3 466.34 367.39C467.39 371.37 470.25 374.61 474.07 376.16C479.45 378.35 487.03 381.4 490.78 382.83C495.72 384.71 500.78 386.29 505.65 388.34C506.45 388.67 508.07 389.07 508.76 389.72C508.88 389.83 508.95 389.98 508.99 390.14L509.49 391.9C509.99 393.66 508.68 395.42 506.85 395.42H450.98C449.76 395.42 432.13 345.33 428.96 340.93C426.45 337.45 422.96 331.31 420.36 326.5C418.54 323.13 415.46 309.72 414.44 301.34C413.99 297.63 411.4 294.56 407.82 293.49C391.2 288.54 345.18 274.81 342.55 274.04C342.46 274.01 342.27 273.94 342.04 273.85C341.22 273.53 340.28 273.62 339.54 274.1L282.17 310.11C273.52 315.53 263.54 318.49 253.34 318.62C227.89 318.96 179.93 319.76 177.17 320.8C175.9 321.28 140.3 335.91 128.34 341.09C126.5 341.88 124.46 340.54 124.46 338.54V335.04C124.46 334.28 124.77 333.54 125.33 333.02L146 313.48C151.45 308.34 156.89 303.19 162.3 298.03C164.33 296.09 167.17 296.73 169.79 296.73C173.06 296.73 208.24 295.5 212.76 294.66C233.84 290.26 260.42 292.67 261.53 292.46C262.73 292.24 262.95 291.73 263.77 290.72C266.89 286.94 288.04 261.38 290.32 258.58C292.6 255.78 293.35 252.18 294.51 248.74C295.09 247.01 296.31 243.4 297.69 239.31C301.93 226.77 309.76 215.75 320.2 207.62C320.37 207.47 354.87 168.52 355.19 167.86C355.59 167.02 344.88 163.58 338.53 161.62C335.57 160.71 332.48 160.29 329.38 160.39C312.27 160.96 253.17 162.95 250.38 163.2C247.59 163.45 244.7 164.38 241.97 165.06C238.23 165.8 234.68 166.74 230.86 166.93C226.36 167.15 221.89 166.93 217.39 166.93C217.76 166.93 218.81 165.68 219.07 165.44C220.48 164.19 236.34 152.34 237.87 152.28C239.82 152.21 251.54 151.81 255.45 151.67C259.11 151.55 262.76 151.42 266.42 151.3C269.89 151.18 295 146.25 300.76 145.41C307.28 144.48 331.11 141.41 336.25 140.76C336.91 140.67 337.57 140.57 338.23 140.43C342.19 139.63 356.83 136.62 362.26 134.97C365.71 133.93 371.48 132.98 375.08 132.89C378.68 132.8 382.18 132.85 385.92 132.83C389.4 132.81 392.87 133.15 396.28 133.84C398.88 134.36 401.47 134.89 404.09 135.35C407.24 135.9 410.16 136.6 413.02 136.39V136.42Z" fill="black"></path>
</svg></svg></g></g><defs><clipPath id="SvgjsClipPath1042"><rect width="1000" height="1000" x="0" y="0" rx="350" ry="350"></rect></clipPath></defs></svg></g><g id="dark-icon"><svg xmlns="http://www.w3.org/2000/svg" version="1.1" xmlns:xlink="http://www.w3.org/1999/xlink" xmlns:svgjs="http://svgjs.dev/svgjs" width="1000" height="1000"><g clip-path="url(#SvgjsClipPath1043)"><rect width="1000" height="1000" fill="#ffffff"></rect><g transform="matrix(1.7578125,0,0,1.7578125,50,50)"><svg xmlns="http://www.w3.org/2000/svg" version="1.1" xmlns:xlink="http://www.w3.org/1999/xlink" xmlns:svgjs="http://svgjs.dev/svgjs" width="512" height="512"><svg width="512" height="512" viewBox="0 0 512 512" fill="none" xmlns="http://www.w3.org/2000/svg">
<path d="M427.31 395.4H371.7C371.53 395.4 371.01 394.35 370.24 392.55H2.02002V395.55H460.79V395.4H427.31Z" fill="#078C03"></path>
<path d="M370.23 392.54C371 394.34 371.52 395.39 371.69 395.39H460.78V392.54H370.23Z" fill="#078C03"></path>
<path d="M451.4 383.61H458.98V380.61H443.61C445.88 381.51 447.93 382.32 449.39 382.88C450.05 383.13 450.72 383.37 451.39 383.61H451.4Z" fill="#078C03"></path>
<path d="M2.01001 380.61V383.61H366.68C366.31 382.65 365.92 381.64 365.53 380.61H2.01001Z" fill="#078C03"></path>
<path d="M2.01001 368.68V371.68H362.13L360.99 368.68H2.01001Z" fill="#078C03"></path>
<path d="M387.37 368.68C387.77 369.75 388.29 370.76 388.94 371.68H400.23L399.09 368.68H387.37Z" fill="#078C03"></path>
<path d="M457.18 371.68V368.68H425.46C425.86 369.75 426.38 370.76 427.03 371.68H457.18Z" fill="#078C03"></path>
<path d="M394.53 356.75H384.13C384.4 357.79 384.67 358.79 384.93 359.75H395.69C395.3 358.73 394.91 357.73 394.53 356.75Z" fill="#078C03"></path>
<path d="M2.01001 356.75V359.75H357.59C357.2 358.73 356.81 357.73 356.43 356.75H2.01001Z" fill="#078C03"></path>
<path d="M455.38 359.75V356.75H422.22C422.49 357.78 422.76 358.79 423.02 359.75H455.38Z" fill="#078C03"></path>
<path d="M453.58 347.82V344.82H419.06C419.33 345.83 419.59 346.84 419.86 347.82H453.58Z" fill="#078C03"></path>
<path d="M389.7 344.82H380.97C381.24 345.84 381.5 346.84 381.77 347.82H390.98C390.52 346.71 390.09 345.7 389.71 344.82H389.7Z" fill="#078C03"></path>
<path d="M2.01001 344.82V347.82H352.88C352.42 346.71 351.99 345.7 351.61 344.82H2.01001Z" fill="#078C03"></path>
<path d="M451.78 335.89V332.89H415.9C416.17 333.9 416.43 334.9 416.7 335.89H451.78Z" fill="#078C03"></path>
<path d="M108.65 332.89C106.19 333.91 103.77 334.92 101.45 335.89H346.38C345.8 334.92 345.2 333.91 344.62 332.89H108.65Z" fill="#078C03"></path>
<path d="M382.71 332.89H377.81C378.08 333.9 378.34 334.9 378.61 335.89H384.48C383.9 334.92 383.3 333.91 382.72 332.89H382.71Z" fill="#078C03"></path>
<path d="M375.44 323.96H378.19C377.9 323.08 377.6 322.06 377.29 320.96H374.65C374.91 321.96 375.18 322.96 375.44 323.96Z" fill="#078C03"></path>
<path d="M339.19 320.96H138.05C137.65 321.01 137.37 321.07 137.22 321.13C136.89 321.25 134.23 322.34 130.27 323.96H340.09C339.8 323.08 339.5 322.06 339.19 320.96Z" fill="#078C03"></path>
<path d="M449.98 323.96V320.96H412.74C413 321.96 413.27 322.96 413.53 323.96H449.98Z" fill="#078C03"></path>
<path d="M448.17 312.02V309.02H409.57C409.83 310.01 410.1 311.01 410.36 312.02H448.17Z" fill="#078C03"></path>
<path d="M336.48 309.02H244.06L241.74 310.47C240.88 311.01 239.99 311.52 239.1 312.02H337.06C336.85 311.02 336.66 310.01 336.47 309.02H336.48Z" fill="#078C03"></path>
<path d="M372.28 312.02H375.17C374.96 311.02 374.77 310.01 374.58 309.02H371.49C371.75 310.01 372.02 311.01 372.28 312.02Z" fill="#078C03"></path>
<path d="M85.61 333.29L86.03 332.89H70.55C68.09 333.91 65.66 334.92 63.35 335.89H84.74V335.3C84.74 334.54 85.05 333.81 85.61 333.29Z" fill="#078C03"></path>
<path d="M47.51 333.29L47.93 332.89H2.01001V335.89H46.64V335.3C46.64 334.54 46.95 333.81 47.51 333.29Z" fill="#078C03"></path>
<path d="M98 321.58C96.81 322.06 94.78 322.89 92.18 323.96H95.48L98 321.58Z" fill="#078C03"></path>
<path d="M2.01001 320.96V323.96H57.39L60.56 320.96H2.01001Z" fill="#078C03"></path>
<path d="M2.01001 309.02V312.02H70C71.06 311.02 72.11 310.02 73.17 309.02H2.01001Z" fill="#078C03"></path>
<path d="M373.21 300.66C372.94 299.57 372.47 298.56 371.86 297.66H368.47C368.73 298.64 368.99 299.64 369.26 300.66H373.21Z" fill="#DA1B1A"></path>
<path d="M446.23 300.66V297.66H406.57C406.83 298.64 407.09 299.64 407.36 300.66H446.23Z" fill="#DA1B1A"></path>
<path d="M333.78 297.66H262.18L257.4 300.66H335.12C334.85 299.57 334.4 298.56 333.78 297.66Z" fill="#DA1B1A"></path>
<path d="M2.01001 285.56V288.56H187.51C188.23 287.7 189.06 286.68 189.99 285.56H2.01001Z" fill="#DA1B1A"></path>
<path d="M434.3 288.56V285.56H403.36C403.61 286.51 403.88 287.51 404.15 288.56H434.3Z" fill="#DA1B1A"></path>
<path d="M300.64 285.56H281.44L276.66 288.56H310.7C307.45 287.59 304.05 286.58 300.64 285.56Z" fill="#DA1B1A"></path>
<path d="M400.85 276.47H422.39V273.47H398.8C399.68 274.33 400.37 275.34 400.85 276.47Z" fill="#DA1B1A"></path>
<path d="M2.01001 273.47V276.47H197.51C198.34 275.47 199.17 274.47 199.99 273.47H2.01001Z" fill="#DA1B1A"></path>
<path d="M410.46 264.38V261.38H381.84C383.31 262.42 384.73 263.42 386.1 264.38H410.46Z" fill="#DA1B1A"></path>
<path d="M2.01001 261.38V264.38H207.5C208.45 263.23 209.29 262.21 209.97 261.38H2H2.01001Z" fill="#DA1B1A"></path>
<path d="M215.98 249.29H2.01001V252.29H215.03C215.33 251.33 215.62 250.37 215.94 249.42C215.95 249.38 215.97 249.33 215.98 249.29Z" fill="#DA1B1A"></path>
<path d="M398.54 252.29V249.29H364.68C366.09 250.28 367.51 251.29 368.94 252.29H398.54Z" fill="#DA1B1A"></path>
<path d="M220.14 237.2H2.01001V240.2H219.04C219.06 240.14 219.08 240.08 219.1 240.02C219.42 239.07 219.77 238.13 220.13 237.2H220.14Z" fill="#DA1B1A"></path>
<path d="M386.62 240.2V237.2H347.52C348.84 238.13 350.27 239.14 351.78 240.2H386.62Z" fill="#DA1B1A"></path>
<path d="M85.47 297.66H2.01001V300.66H81.99C82.76 299.93 83.54 299.2 84.31 298.46C84.67 298.11 85.06 297.85 85.47 297.66Z" fill="#DA1B1A"></path>
<path d="M2.01001 225.11V228.11H224.48C225.06 227.09 225.67 226.09 226.3 225.11H2H2.01001Z" fill="#DA1B1A"></path>
<path d="M374.7 228.11V225.11H340.89C339.58 226.64 338.7 227.68 338.35 228.11H374.7Z" fill="black"></path>
<path d="M362.78 216.02V213.02H351.33C350.44 214.05 349.57 215.05 348.73 216.02H362.78Z" fill="black"></path>
<path d="M236.28 213.02H2.01001V216.02H233.34C234.29 214.99 235.26 213.99 236.27 213.02H236.28Z" fill="black"></path>
<path d="M119.15 201.65V204.65H244.93C245.71 203.77 246.61 202.75 247.59 201.65H119.15Z" fill="black"></path>
<path d="M395.65 204.65V201.65H361.18C360.31 202.65 359.44 203.66 358.58 204.65H395.65Z" fill="black"></path>
<path d="M403.71 192.55V189.55H371.63C370.78 190.53 369.92 191.53 369.04 192.55H403.71Z" fill="black"></path>
<path d="M119.15 189.55V192.55H255.63C256.51 191.56 257.39 190.56 258.28 189.55H119.15Z" fill="black"></path>
<path d="M119.15 177.46V180.46H266.3C267.22 179.42 268.1 178.41 268.94 177.46H119.15Z" fill="black"></path>
<path d="M411.77 180.46V177.46H382.03C381.25 178.38 380.39 179.38 379.46 180.46H411.77Z" fill="black"></path>
<path d="M403.13 168.37H419.83V165.37H406.47C405.62 166.21 404.82 167 404.17 167.65C403.86 167.95 403.5 168.19 403.13 168.37Z" fill="black"></path>
<path d="M204.55 165.37C203.6 165.62 202.66 165.88 201.73 166.11C198.01 166.85 194.47 167.78 190.67 167.97C186.19 168.19 181.74 167.97 177.26 167.97C177.63 167.97 178.67 166.73 178.93 166.49C179.13 166.31 179.64 165.91 180.36 165.36H166.46C165.51 165.61 164.57 165.87 163.64 166.1C159.92 166.84 156.38 167.77 152.58 167.96C148.1 168.18 143.65 167.96 139.17 167.96C139.54 167.96 140.58 166.72 140.84 166.48C141.04 166.3 141.55 165.9 142.26 165.35H119.14V168.35H275.85C274.68 167.65 271.59 166.51 268.15 165.35H204.55V165.37Z" fill="black"></path>
<path d="M391.39 165.37H386.69C386.54 165.52 386.4 165.7 386.3 165.93C386.27 166.01 386.29 167.08 386.27 168.37H399.83C398.07 167.75 395.83 166.97 394.36 166.47C393.75 166.26 392.62 165.77 391.39 165.37Z" fill="black"></path>
<path d="M427.9 156.28V153.28H416.72C416.54 154.28 415.81 155.31 414.99 156.28H427.9Z" fill="black"></path>
<path d="M163.26 153.28H119.15V156.28H154.74C157.17 154.62 159.08 153.42 159.56 153.41C160.12 153.39 161.5 153.34 163.27 153.28H163.26Z" fill="black"></path>
<path d="M435.97 144.19V141.19H419.77C419.08 142.11 418.28 143.14 417.64 144.19H435.97Z" fill="black"></path>
<path d="M259.45 141.62C259.98 141.51 260.71 141.36 261.58 141.19H119.14V144.19H240.11C247.56 143.22 254.89 142.28 257.47 141.95C258.13 141.86 258.78 141.76 259.44 141.62H259.45Z" fill="black"></path>
<path d="M381.94 130.68C382.18 130.17 382.38 129.64 382.54 129.1H381.02C381.34 129.6 381.65 130.12 381.94 130.68Z" fill="black"></path>
<path d="M444.03 132.1V129.1H419.11C419.68 130 420.24 131.02 420.68 132.1H444.03Z" fill="black"></path>
<path d="M119.15 129.1V132.1H343.04C343.64 131.16 344.12 130.15 344.44 129.1H119.14H119.15Z" fill="black"></path>
<path d="M350.5 118.28H372.02C372.92 118.28 373.76 118.72 374.28 119.46L374.66 120H386.69C387.48 119.16 388.34 118.28 388.59 118.28H410.11C411.01 118.28 411.85 118.72 412.37 119.46L412.75 120H452.09V117H119.14V120H348.59C349.38 119.16 350.24 118.28 350.49 118.28H350.5Z" fill="black"></path>
<path d="M410.12 118.28H388.6C388.35 118.28 387.48 119.16 386.7 120H412.77L412.39 119.46C411.87 118.72 411.03 118.28 410.13 118.28H410.12Z" fill="black"></path>
<path d="M374.29 119.46C373.77 118.72 372.93 118.28 372.03 118.28H350.51C350.26 118.28 349.39 119.16 348.61 120H374.68L374.3 119.46H374.29Z" fill="black"></path>
<path d="M348.59 165.37H353.29C351.52 164.79 349.54 164.42 348.59 165.37Z" fill="#333333"></path>
<path d="M250.66 161.47C233.63 162.04 174.8 164.02 172.02 164.27C170.17 164.43 168.3 164.89 166.46 165.38H268.15C265.3 164.42 262.21 163.45 259.76 162.69C256.81 161.78 253.74 161.37 250.65 161.47H250.66Z" fill="#333333"></path>
<path d="M320.48 204.65H244.93C242.86 206.99 241.55 208.45 241.52 208.48C239.69 209.9 237.95 211.42 236.29 213.02H313.24C315.52 210.38 317.98 207.55 320.49 204.65H320.48Z" fill="#333333"></path>
<path d="M238.57 288.56H187.52C186.53 289.76 185.76 290.68 185.34 291.2C184.52 292.19 184.3 292.7 183.11 292.93C182 293.14 155.55 290.73 134.56 295.12C130.05 295.95 95.03 297.18 91.79 297.18C89.64 297.18 87.3601 296.75 85.4901 297.66H224.1L238.59 288.57H238.57V288.56Z" fill="#333333"></path>
<path d="M257.84 276.47H197.52C194.82 279.74 192.17 282.94 190 285.56H243.35L257.84 276.47Z" fill="#333333"></path>
<path d="M46.65 338.78C46.65 340.77 48.69 342.11 50.51 341.32C53.57 340 58.17 338.05 63.35 335.89H46.65V338.78Z" fill="#333333"></path>
<path d="M300.64 285.56H365.27C364.41 282.33 363.71 279.66 363.21 277.75C363.09 277.31 362.94 276.88 362.76 276.47H270.13C277.19 278.57 289.02 282.1 300.65 285.56H300.64Z" fill="#333333"></path>
<path d="M339.19 320.96H374.64C373.84 317.95 373.05 314.96 372.27 312.03H337.06C337.72 315.21 338.46 318.35 339.18 320.96H339.19Z" fill="#333333"></path>
<path d="M310.64 216.02H233.35C230.75 218.85 228.39 221.89 226.31 225.11H302.8C304.68 222.92 307.42 219.74 310.64 216.02Z" fill="#333333"></path>
<path d="M335.33 301.75C335.59 303.92 336 306.43 336.48 309.02H371.48C370.72 306.14 369.97 303.34 369.26 300.65H335.11C335.2 301.01 335.28 301.37 335.33 301.75Z" fill="#333333"></path>
<path d="M328.74 293.94C330.85 294.57 332.6 295.91 333.78 297.65H368.47C367.6 294.37 366.79 291.31 366.06 288.56H310.7C317.87 290.7 324.34 292.63 328.73 293.94H328.74Z" fill="#333333"></path>
<path d="M341.22 326.8C342.25 328.7 343.42 330.82 344.61 332.89H377.8C377.02 329.94 376.23 326.95 375.43 323.96H340.08C340.49 325.19 340.87 326.17 341.21 326.8H341.22Z" fill="#333333"></path>
<path d="M172.02 164.26C174.8 164.02 233.63 162.04 250.66 161.46C253.75 161.36 256.81 161.77 259.77 162.68C262.21 163.43 265.31 164.41 268.16 165.37H348.6C349.55 164.42 351.53 164.79 353.3 165.37H368.4C370.87 162.9 373.76 159.97 374.74 158.74C375.3 158.03 376.15 157.18 376.91 156.28H154.75C150.61 159.11 144.96 163.31 142.28 165.37H166.47C168.31 164.88 170.17 164.42 172.03 164.26H172.02Z" fill="#333333"></path>
<path d="M301.77 231.8C300 230.55 299.86 230.4 300.09 228.33C300.09 228.32 300.15 228.24 300.25 228.11H224.47C222.8 231.02 221.35 234.06 220.12 237.2H309.41C306.06 234.84 303.38 232.95 301.75 231.8H301.77Z" fill="#333333"></path>
<path d="M382.55 139.95C384.07 137.59 383.65 134.67 382.59 132.09H343.05C342.01 133.72 340.6 135.12 339.01 136.04C337.3 137.04 335.6 137.49 333.88 137.61C331.03 137.81 328.13 137.12 324.99 136.57C322.39 136.12 319.81 135.6 317.22 135.07C313.83 134.38 310.37 134.05 306.91 134.06C303.19 134.08 299.85 134.03 296.12 134.12C292.54 134.21 286.79 135.15 283.36 136.19C278.68 137.61 267.14 140.04 261.57 141.18H381.66C381.99 140.74 382.29 140.32 382.53 139.95H382.55Z" fill="#333333"></path>
<path d="M330.85 252.29H215.03C214.26 254.76 213.42 257.18 211.77 259.21C211.47 259.58 210.84 260.34 209.98 261.39H343.75C339.67 258.52 335.26 255.41 330.85 252.3V252.29Z" fill="#333333"></path>
<path d="M313.69 240.2H219.05C217.73 244.11 216.57 247.56 215.98 249.29H326.59C322.02 246.07 317.58 242.94 313.69 240.2Z" fill="#333333"></path>
<path d="M347.55 173.2C348.04 172.61 348.15 170.25 348.17 168.38H275.85C276.22 168.6 276.4 168.78 276.34 168.9C276.25 169.1 273.18 172.62 268.92 177.47H343.93C345.48 175.66 346.72 174.19 347.54 173.2H347.55Z" fill="#333333"></path>
<path d="M380.56 128.4C379.53 126.94 378.51 125.47 377.48 124.01L374.67 120H348.6C347.99 120.66 347.43 121.29 347.24 121.46C345.48 123.16 344.99 124.19 344.89 126.57C344.86 127.42 344.69 128.26 344.44 129.09H381.02C380.87 128.85 380.71 128.62 380.56 128.4Z" fill="#333333"></path>
<path d="M362.17 168.52C363.13 168.86 364.16 168.79 365.04 168.37H361.73C361.88 168.42 362.03 168.47 362.16 168.52H362.17Z" fill="#333333"></path>
<path d="M359.56 272.51C357.02 270.72 352.91 267.82 348.01 264.38H207.51C205.4 266.94 202.75 270.15 200 273.47H360.71C360.36 273.12 359.98 272.8 359.56 272.51Z" fill="#333333"></path>
<path d="M378.65 153.23C378.95 151.43 378.52 149.25 378.44 147.43C378.4 146.4 378.88 145.29 379.55 144.19H240.12C232.81 145.14 225.36 146.12 222.15 146.58C216.42 147.4 191.42 152.32 187.97 152.44C184.33 152.56 180.69 152.68 177.05 152.81C174.29 152.9 167.6 153.14 163.26 153.29H378.63C378.63 153.29 378.64 153.26 378.64 153.24H378.65V153.23Z" fill="#333333"></path>
<path d="M394.67 376.24C392.33 375.29 390.35 373.69 388.93 371.68H362.13C363.3 374.77 364.45 377.81 365.52 380.61H405.52C401.99 379.21 397.93 377.56 394.67 376.24Z" fill="#333333"></path>
<path d="M92.1801 323.96H57.3901L47.9401 332.89H70.5601C78.4501 329.61 86.6001 326.25 92.1801 323.96Z" fill="#333333"></path>
<path d="M429.94 391.9L429.44 390.15C429.4 390 429.33 389.84 429.21 389.73C428.52 389.09 426.9 388.7 426.11 388.36C421.91 386.59 417.59 385.17 413.31 383.61H366.68C368.11 387.31 369.34 390.44 370.23 392.54H430.04C430.04 392.33 430 392.11 429.94 391.89V391.9Z" fill="#333333"></path>
<path d="M386.98 367.51C386.41 365.36 385.71 362.74 384.92 359.75H357.59C358.7 362.64 359.85 365.66 361 368.68H387.37C387.23 368.3 387.09 367.91 386.99 367.51H386.98Z" fill="#333333"></path>
<path d="M381.76 347.82H352.88C353.92 350.35 355.14 353.41 356.43 356.75H384.13C383.4 353.99 382.6 350.99 381.76 347.82Z" fill="#333333"></path>
<path d="M378.6 335.89H346.37C347.58 337.91 348.76 339.76 349.77 341.16C350.17 341.71 350.8 343 351.6 344.82H380.96C380.2 341.94 379.4 338.95 378.59 335.89H378.6Z" fill="#333333"></path>
<path d="M330.95 192.55H255.63C252.7 195.87 249.91 199.02 247.59 201.64H323.08C325.72 198.59 328.39 195.51 330.95 192.55Z" fill="#333333"></path>
<path d="M174.95 318.95C184.09 318.83 193.04 316.43 201.02 312.02H70.0101C69.3701 312.63 68.7301 313.23 68.0901 313.84L60.5701 320.95H99.9701C106.98 319.99 150.99 319.27 174.96 318.95H174.95Z" fill="#333333"></path>
<path d="M219.3 300.66H82C79.06 303.45 76.12 306.24 73.17 309.03H205.97L219.31 300.66H219.3Z" fill="#333333"></path>
<path d="M341.37 180.46H266.29C263.78 183.32 261.02 186.44 258.27 189.55H333.53C336.41 186.22 339.08 183.11 341.36 180.46H341.37Z" fill="#333333"></path>
<path d="M288.75 161.47C271.72 162.04 212.89 164.02 210.11 164.27C208.26 164.43 206.39 164.89 204.55 165.38H306.24C303.39 164.42 300.3 163.45 297.85 162.69C294.9 161.78 291.83 161.37 288.74 161.47H288.75Z" fill="#1A1A1A"></path>
<path d="M386.68 165.37H391.38C389.61 164.79 387.63 164.42 386.68 165.37Z" fill="#1A1A1A"></path>
<path d="M397.65 272.51C395.11 270.72 391 267.82 386.1 264.38H245.6C243.49 266.94 240.84 270.15 238.09 273.47H398.8C398.45 273.12 398.07 272.8 397.65 272.51Z" fill="#1A1A1A"></path>
<path d="M377.29 320.96H412.74C411.94 317.95 411.15 314.96 410.37 312.03H375.16C375.82 315.21 376.56 318.35 377.28 320.96H377.29Z" fill="#1A1A1A"></path>
<path d="M379.31 326.8C380.34 328.7 381.51 330.82 382.7 332.89H415.89C415.11 329.94 414.32 326.95 413.52 323.96H378.17C378.58 325.19 378.96 326.17 379.3 326.8H379.31Z" fill="#1A1A1A"></path>
<path d="M366.83 293.94C368.94 294.57 370.69 295.91 371.87 297.65H406.56C405.69 294.37 404.88 291.31 404.15 288.56H348.79C355.96 290.7 362.43 292.63 366.82 293.94H366.83Z" fill="#1A1A1A"></path>
<path d="M338.74 285.56H403.37C402.51 282.33 401.81 279.66 401.31 277.75C401.19 277.31 401.04 276.88 400.86 276.47H308.23C315.29 278.57 327.12 282.1 338.75 285.56H338.74Z" fill="#1A1A1A"></path>
<path d="M373.42 301.75C373.68 303.92 374.09 306.43 374.57 309.02H409.57C408.81 306.14 408.06 303.34 407.35 300.65H373.2C373.29 301.01 373.37 301.37 373.42 301.75Z" fill="#1A1A1A"></path>
<path d="M368.94 252.29H253.12C252.35 254.76 251.51 257.18 249.86 259.21C249.56 259.58 248.93 260.34 248.07 261.39H381.84C377.76 258.52 373.35 255.41 368.94 252.3V252.29Z" fill="#1A1A1A"></path>
<path d="M84.74 338.78C84.74 340.77 86.78 342.11 88.6 341.32C91.66 340 96.26 338.05 101.44 335.89H84.74V338.78Z" fill="#1A1A1A"></path>
<path d="M416.74 153.23C417.04 151.43 416.61 149.25 416.53 147.43C416.49 146.4 416.97 145.29 417.64 144.19H278.21C270.9 145.14 263.45 146.12 260.24 146.58C254.51 147.4 229.51 152.32 226.06 152.44C222.42 152.56 218.78 152.68 215.14 152.81C212.38 152.9 205.69 153.14 201.35 153.29H416.72C416.72 153.29 416.73 153.26 416.73 153.24H416.74V153.23Z" fill="#1A1A1A"></path>
<path d="M400.26 168.52C401.22 168.86 402.25 168.79 403.13 168.37H399.82C399.97 168.42 400.12 168.47 400.25 168.52H400.26Z" fill="#1A1A1A"></path>
<path d="M420.64 139.95C422.16 137.59 421.74 134.67 420.68 132.09H381.14C380.1 133.72 378.69 135.12 377.1 136.04C375.39 137.04 373.69 137.49 371.97 137.61C369.12 137.81 366.22 137.12 363.08 136.57C360.48 136.12 357.9 135.6 355.31 135.07C351.92 134.38 348.46 134.05 345 134.06C341.28 134.08 337.94 134.03 334.21 134.12C330.63 134.21 324.88 135.15 321.45 136.19C316.77 137.61 305.23 140.04 299.66 141.18H419.75C420.08 140.74 420.38 140.32 420.62 139.95H420.64Z" fill="#1A1A1A"></path>
<path d="M295.93 276.47H235.61C232.91 279.74 230.26 282.94 228.09 285.56H281.44L295.93 276.47Z" fill="#1A1A1A"></path>
<path d="M418.65 128.4C417.62 126.94 416.6 125.47 415.57 124.01L412.76 120H386.69C386.08 120.66 385.52 121.29 385.33 121.46C383.57 123.16 383.08 124.19 382.98 126.57C382.95 127.42 382.78 128.26 382.53 129.09H419.11C418.96 128.85 418.8 128.62 418.65 128.4Z" fill="#1A1A1A"></path>
<path d="M210.11 164.26C212.89 164.02 271.72 162.04 288.75 161.46C291.84 161.36 294.9 161.77 297.86 162.68C300.3 163.43 303.4 164.41 306.25 165.37H386.69C387.64 164.42 389.62 164.79 391.39 165.37H406.49C408.96 162.9 411.85 159.97 412.83 158.74C413.39 158.03 414.24 157.18 415 156.28H192.84C188.7 159.11 183.05 163.31 180.37 165.37H204.56C206.4 164.88 208.26 164.42 210.12 164.26H210.11Z" fill="#1A1A1A"></path>
<path d="M369.04 192.55H293.72C290.79 195.87 288 199.02 285.68 201.64H361.17C363.81 198.59 366.48 195.51 369.04 192.55Z" fill="#1A1A1A"></path>
<path d="M348.73 216.02H271.44C268.84 218.85 266.48 221.89 264.4 225.11H340.89C342.77 222.92 345.51 219.74 348.73 216.02Z" fill="#1A1A1A"></path>
<path d="M339.87 231.8C338.1 230.55 337.96 230.4 338.19 228.33C338.19 228.32 338.25 228.24 338.35 228.11H262.57C260.9 231.02 259.45 234.06 258.22 237.2H347.51C344.16 234.84 341.48 232.95 339.85 231.8H339.87Z" fill="#1A1A1A"></path>
<path d="M351.78 240.2H257.14C255.82 244.11 254.66 247.56 254.07 249.29H364.68C360.11 246.07 355.67 242.94 351.78 240.2Z" fill="#1A1A1A"></path>
<path d="M385.64 173.2C386.13 172.61 386.24 170.25 386.26 168.38H313.94C314.31 168.6 314.49 168.78 314.43 168.9C314.34 169.1 311.27 172.62 307.01 177.47H382.02C383.57 175.66 384.81 174.19 385.63 173.2H385.64Z" fill="#1A1A1A"></path>
<path d="M358.57 204.65H283.02C280.95 206.99 279.64 208.45 279.61 208.48C277.78 209.9 276.04 211.42 274.38 213.02H351.33C353.61 210.38 356.07 207.55 358.58 204.65H358.57Z" fill="#1A1A1A"></path>
<path d="M379.46 180.46H304.38C301.87 183.32 299.11 186.44 296.36 189.55H371.62C374.5 186.22 377.17 183.11 379.45 180.46H379.46Z" fill="#1A1A1A"></path>
<path d="M257.4 300.66H120.1C117.16 303.45 114.22 306.24 111.27 309.03H244.07L257.41 300.66H257.4Z" fill="#1A1A1A"></path>
<path d="M416.69 335.89H384.46C385.67 337.91 386.85 339.76 387.86 341.16C388.26 341.71 388.89 343 389.69 344.82H419.05C418.29 341.94 417.49 338.95 416.68 335.89H416.69Z" fill="#1A1A1A"></path>
<path d="M468.04 391.9L467.54 390.15C467.5 390 467.43 389.84 467.31 389.73C466.62 389.09 465 388.7 464.21 388.36C460.01 386.59 455.69 385.17 451.41 383.61H404.78C406.21 387.31 407.44 390.44 408.33 392.54H460.79V395.39H465.41C467.23 395.39 468.55 393.64 468.04 391.89V391.9Z" fill="#1A1A1A"></path>
<path d="M130.27 323.96H95.48L86.03 332.89H108.65C116.54 329.61 124.69 326.25 130.27 323.96Z" fill="#1A1A1A"></path>
<path d="M213.04 318.95C222.18 318.83 231.13 316.43 239.11 312.02H108.1C107.46 312.63 106.82 313.23 106.18 313.84L98.66 320.95H138.06C145.07 319.99 189.08 319.27 213.05 318.95H213.04Z" fill="#1A1A1A"></path>
<path d="M419.86 347.82H390.98C392.02 350.35 393.24 353.41 394.53 356.75H422.23C421.5 353.99 420.7 350.99 419.86 347.82Z" fill="#1A1A1A"></path>
<path d="M276.66 288.56H225.61C224.62 289.76 223.85 290.68 223.43 291.2C222.61 292.19 222.39 292.7 221.2 292.93C220.09 293.14 193.64 290.73 172.65 295.12C168.14 295.95 133.12 297.18 129.88 297.18C127.73 297.18 125.45 296.75 123.58 297.66H262.19L276.68 288.57H276.66V288.56Z" fill="#1A1A1A"></path>
<path d="M432.77 376.24C430.43 375.29 428.45 373.69 427.03 371.68H400.23C401.4 374.77 402.55 377.81 403.62 380.61H443.62C440.09 379.21 436.03 377.56 432.77 376.24Z" fill="#1A1A1A"></path>
<path d="M425.08 367.51C424.51 365.36 423.81 362.74 423.02 359.75H395.69C396.8 362.64 397.95 365.66 399.1 368.68H425.47C425.33 368.3 425.19 367.91 425.09 367.51H425.08Z" fill="#1A1A1A"></path>
<path d="M413.02 136.42C414.75 136.3 416.45 135.85 418.17 134.84C421.4 132.95 423.92 129.12 424.07 125.33C424.17 122.94 424.65 121.9 426.43 120.2C426.84 119.8 429.26 117.01 429.71 117.01H451.33C452.23 117.01 453.08 117.45 453.6 118.2L456.8 122.77C457.83 124.24 458.86 125.71 459.89 127.18C462.01 130.19 464.22 135.15 461.89 138.78C460.61 140.78 457.66 143.81 457.76 146.29C457.84 148.12 458.26 150.31 457.97 152.12C457.65 154.06 455.22 156.16 454.03 157.65C452.71 159.31 447.94 164.06 445.35 166.61C444.32 167.63 442.79 167.97 441.41 167.48C439.59 166.84 437.07 165.95 435.47 165.42C433.83 164.87 428.47 162.25 427.37 164.88C427.29 165.08 427.55 171.18 426.72 172.18C419.38 181.02 379.09 227.21 379.05 227.56C378.82 229.64 378.95 229.79 380.73 231.05C389.4 237.18 428.02 264.37 438.78 271.96C440.59 273.24 441.87 275.09 442.45 277.22C446.22 291.5 461.28 348.3 466.34 367.39C467.39 371.37 470.25 374.61 474.07 376.16C479.45 378.35 487.03 381.4 490.78 382.83C495.72 384.71 500.78 386.29 505.65 388.34C506.45 388.67 508.07 389.07 508.76 389.72C508.88 389.83 508.95 389.98 508.99 390.14L509.49 391.9C509.99 393.66 508.68 395.42 506.85 395.42H450.98C449.76 395.42 432.13 345.33 428.96 340.93C426.45 337.45 422.96 331.31 420.36 326.5C418.54 323.13 415.46 309.72 414.44 301.34C413.99 297.63 411.4 294.56 407.82 293.49C391.2 288.54 345.18 274.81 342.55 274.04C342.46 274.01 342.27 273.94 342.04 273.85C341.22 273.53 340.28 273.62 339.54 274.1L282.17 310.11C273.52 315.53 263.54 318.49 253.34 318.62C227.89 318.96 179.93 319.76 177.17 320.8C175.9 321.28 140.3 335.91 128.34 341.09C126.5 341.88 124.46 340.54 124.46 338.54V335.04C124.46 334.28 124.77 333.54 125.33 333.02L146 313.48C151.45 308.34 156.89 303.19 162.3 298.03C164.33 296.09 167.17 296.73 169.79 296.73C173.06 296.73 208.24 295.5 212.76 294.66C233.84 290.26 260.42 292.67 261.53 292.46C262.73 292.24 262.95 291.73 263.77 290.72C266.89 286.94 288.04 261.38 290.32 258.58C292.6 255.78 293.35 252.18 294.51 248.74C295.09 247.01 296.31 243.4 297.69 239.31C301.93 226.77 309.76 215.75 320.2 207.62C320.37 207.47 354.87 168.52 355.19 167.86C355.59 167.02 344.88 163.58 338.53 161.62C335.57 160.71 332.48 160.29 329.38 160.39C312.27 160.96 253.17 162.95 250.38 163.2C247.59 163.45 244.7 164.38 241.97 165.06C238.23 165.8 234.68 166.74 230.86 166.93C226.36 167.15 221.89 166.93 217.39 166.93C217.76 166.93 218.81 165.68 219.07 165.44C220.48 164.19 236.34 152.34 237.87 152.28C239.82 152.21 251.54 151.81 255.45 151.67C259.11 151.55 262.76 151.42 266.42 151.3C269.89 151.18 295 146.25 300.76 145.41C307.28 144.48 331.11 141.41 336.25 140.76C336.91 140.67 337.57 140.57 338.23 140.43C342.19 139.63 356.83 136.62 362.26 134.97C365.71 133.93 371.48 132.98 375.08 132.89C378.68 132.8 382.18 132.85 385.92 132.83C389.4 132.81 392.87 133.15 396.28 133.84C398.88 134.36 401.47 134.89 404.09 135.35C407.24 135.9 410.16 136.6 413.02 136.39V136.42Z" fill="black"></path>
</svg></svg></g></g><defs><clipPath id="SvgjsClipPath1043"><rect width="1000" height="1000" x="0" y="0" rx="350" ry="350"></rect></clipPath></defs></svg></g></svg>