<svg width="760" height="279" viewBox="0 0 760 279" fill="none" xmlns="http://www.w3.org/2000/svg">
<g clip-path="url(#clip0_152_41)">
<path d="M676.74 278.4H621.13C620.96 278.4 620.44 277.35 619.67 275.55H251.45V278.55H710.22V278.4H676.74Z" fill="#078C03"/>
<path d="M619.66 275.54C620.43 277.34 620.95 278.39 621.12 278.39H710.21V275.54H619.66Z" fill="#078C03"/>
<path d="M700.83 266.61H708.41V263.61H693.04C695.31 264.51 697.36 265.32 698.82 265.88C699.48 266.13 700.15 266.37 700.82 266.61H700.83Z" fill="#078C03"/>
<path d="M251.44 263.61V266.61H616.11C615.74 265.65 615.35 264.64 614.96 263.61H251.44Z" fill="#078C03"/>
<path d="M251.44 251.68V254.68H611.56L610.42 251.68H251.44Z" fill="#078C03"/>
<path d="M636.8 251.68C637.2 252.75 637.72 253.76 638.37 254.68H649.66L648.52 251.68H636.8Z" fill="#078C03"/>
<path d="M706.61 254.68V251.68H674.89C675.29 252.75 675.81 253.76 676.46 254.68H706.61Z" fill="#078C03"/>
<path d="M643.96 239.75H633.56C633.83 240.79 634.1 241.79 634.36 242.75H645.12C644.73 241.73 644.34 240.73 643.96 239.75Z" fill="#078C03"/>
<path d="M251.44 239.75V242.75H607.02C606.63 241.73 606.24 240.73 605.86 239.75H251.44Z" fill="#078C03"/>
<path d="M704.81 242.75V239.75H671.65C671.92 240.78 672.19 241.79 672.45 242.75H704.81Z" fill="#078C03"/>
<path d="M703.01 230.82V227.82H668.49C668.76 228.83 669.02 229.84 669.29 230.82H703.01Z" fill="#078C03"/>
<path d="M639.13 227.82H630.4C630.67 228.84 630.93 229.84 631.2 230.82H640.41C639.95 229.71 639.52 228.7 639.14 227.82H639.13Z" fill="#078C03"/>
<path d="M251.44 227.82V230.82H602.31C601.85 229.71 601.42 228.7 601.04 227.82H251.44Z" fill="#078C03"/>
<path d="M701.21 218.89V215.89H665.33C665.6 216.9 665.86 217.9 666.13 218.89H701.21Z" fill="#078C03"/>
<path d="M358.08 215.89C355.62 216.91 353.2 217.92 350.88 218.89H595.81C595.23 217.92 594.63 216.91 594.05 215.89H358.08Z" fill="#078C03"/>
<path d="M632.14 215.89H627.24C627.51 216.9 627.77 217.9 628.04 218.89H633.91C633.33 217.92 632.73 216.91 632.15 215.89H632.14Z" fill="#078C03"/>
<path d="M624.87 206.96H627.62C627.33 206.08 627.03 205.06 626.72 203.96H624.08C624.34 204.96 624.61 205.96 624.87 206.96Z" fill="#078C03"/>
<path d="M588.62 203.96H387.48C387.08 204.01 386.8 204.07 386.65 204.13C386.32 204.25 383.66 205.34 379.7 206.96H589.52C589.23 206.08 588.93 205.06 588.62 203.96Z" fill="#078C03"/>
<path d="M699.41 206.96V203.96H662.17C662.43 204.96 662.7 205.96 662.96 206.96H699.41Z" fill="#078C03"/>
<path d="M697.6 195.02V192.02H659C659.26 193.01 659.53 194.01 659.79 195.02H697.6Z" fill="#078C03"/>
<path d="M585.91 192.02H493.49L491.17 193.47C490.31 194.01 489.42 194.52 488.53 195.02H586.49C586.28 194.02 586.09 193.01 585.9 192.02H585.91Z" fill="#078C03"/>
<path d="M621.71 195.02H624.6C624.39 194.02 624.2 193.01 624.01 192.02H620.92C621.18 193.01 621.45 194.01 621.71 195.02Z" fill="#078C03"/>
<path d="M335.04 216.29L335.46 215.89H319.98C317.52 216.91 315.09 217.92 312.78 218.89H334.17V218.3C334.17 217.54 334.48 216.81 335.04 216.29Z" fill="#078C03"/>
<path d="M296.94 216.29L297.36 215.89H251.44V218.89H296.07V218.3C296.07 217.54 296.38 216.81 296.94 216.29Z" fill="#078C03"/>
<path d="M347.43 204.58C346.24 205.06 344.21 205.89 341.61 206.96H344.91L347.43 204.58Z" fill="#078C03"/>
<path d="M251.44 203.96V206.96H306.82L309.99 203.96H251.44Z" fill="#078C03"/>
<path d="M251.44 192.02V195.02H319.43C320.49 194.02 321.54 193.02 322.6 192.02H251.44Z" fill="#078C03"/>
<path d="M622.64 183.66C622.37 182.57 621.9 181.56 621.29 180.66H617.9C618.16 181.64 618.42 182.64 618.69 183.66H622.64Z" fill="#DA1B1A"/>
<path d="M695.66 183.66V180.66H656C656.26 181.64 656.52 182.64 656.79 183.66H695.66Z" fill="#DA1B1A"/>
<path d="M583.21 180.66H511.61L506.83 183.66H584.55C584.28 182.57 583.83 181.56 583.21 180.66Z" fill="#DA1B1A"/>
<path d="M251.44 168.56V171.56H436.94C437.66 170.7 438.49 169.68 439.42 168.56H251.44Z" fill="#DA1B1A"/>
<path d="M683.73 171.56V168.56H652.79C653.04 169.51 653.31 170.51 653.58 171.56H683.73Z" fill="#DA1B1A"/>
<path d="M550.07 168.56H530.87L526.09 171.56H560.13C556.88 170.59 553.48 169.58 550.07 168.56Z" fill="#DA1B1A"/>
<path d="M650.28 159.47H671.82V156.47H648.23C649.11 157.33 649.8 158.34 650.28 159.47Z" fill="#DA1B1A"/>
<path d="M251.44 156.47V159.47H446.94C447.77 158.47 448.6 157.47 449.42 156.47H251.44Z" fill="#DA1B1A"/>
<path d="M659.89 147.38V144.38H631.27C632.74 145.42 634.16 146.42 635.53 147.38H659.89Z" fill="#DA1B1A"/>
<path d="M251.44 144.38V147.38H456.93C457.88 146.23 458.72 145.21 459.4 144.38H251.43H251.44Z" fill="#DA1B1A"/>
<path d="M465.41 132.29H251.44V135.29H464.46C464.76 134.33 465.05 133.37 465.37 132.42C465.38 132.38 465.4 132.33 465.41 132.29Z" fill="#DA1B1A"/>
<path d="M647.97 135.29V132.29H614.11C615.52 133.28 616.94 134.29 618.37 135.29H647.97Z" fill="#DA1B1A"/>
<path d="M469.57 120.2H251.44V123.2H468.47C468.49 123.14 468.51 123.08 468.53 123.02C468.85 122.07 469.2 121.13 469.56 120.2H469.57Z" fill="#DA1B1A"/>
<path d="M636.05 123.2V120.2H596.95C598.27 121.13 599.7 122.14 601.21 123.2H636.05Z" fill="#DA1B1A"/>
<path d="M334.9 180.66H251.44V183.66H331.42C332.19 182.93 332.97 182.2 333.74 181.46C334.1 181.11 334.49 180.85 334.9 180.66Z" fill="#DA1B1A"/>
<path d="M251.44 108.11V111.11H473.91C474.49 110.09 475.1 109.09 475.73 108.11H251.43H251.44Z" fill="#DA1B1A"/>
<path d="M624.13 111.11V108.11H590.32C589.01 109.64 588.13 110.68 587.78 111.11H624.13Z" fill="black"/>
<path d="M612.21 99.02V96.02H600.76C599.87 97.05 599 98.05 598.16 99.02H612.21Z" fill="black"/>
<path d="M485.71 96.02H251.44V99.02H482.77C483.72 97.99 484.69 96.99 485.7 96.02H485.71Z" fill="black"/>
<path d="M368.58 84.65V87.65H494.36C495.14 86.77 496.04 85.75 497.02 84.65H368.58Z" fill="black"/>
<path d="M645.08 87.65V84.65H610.61C609.74 85.65 608.87 86.66 608.01 87.65H645.08Z" fill="black"/>
<path d="M653.14 75.55V72.55H621.06C620.21 73.53 619.35 74.53 618.47 75.55H653.14Z" fill="black"/>
<path d="M368.58 72.55V75.55H505.06C505.94 74.56 506.82 73.56 507.71 72.55H368.58Z" fill="black"/>
<path d="M368.58 60.46V63.46H515.73C516.65 62.42 517.53 61.41 518.37 60.46H368.58Z" fill="black"/>
<path d="M661.2 63.46V60.46H631.46C630.68 61.38 629.82 62.38 628.89 63.46H661.2Z" fill="black"/>
<path d="M652.56 51.37H669.26V48.37H655.9C655.05 49.21 654.25 50 653.6 50.65C653.29 50.95 652.93 51.19 652.56 51.37Z" fill="black"/>
<path d="M453.98 48.37C453.03 48.62 452.09 48.88 451.16 49.11C447.44 49.85 443.9 50.78 440.1 50.97C435.62 51.19 431.17 50.97 426.69 50.97C427.06 50.97 428.1 49.73 428.36 49.49C428.56 49.31 429.07 48.91 429.79 48.36H415.89C414.94 48.61 414 48.87 413.07 49.1C409.35 49.84 405.81 50.77 402.01 50.96C397.53 51.18 393.08 50.96 388.6 50.96C388.97 50.96 390.01 49.72 390.27 49.48C390.47 49.3 390.98 48.9 391.69 48.35H368.57V51.35H525.28C524.11 50.65 521.02 49.51 517.58 48.35H453.98V48.37Z" fill="black"/>
<path d="M640.82 48.37H636.12C635.97 48.52 635.83 48.7 635.73 48.93C635.7 49.01 635.72 50.08 635.7 51.37H649.26C647.5 50.75 645.26 49.97 643.79 49.47C643.18 49.26 642.05 48.77 640.82 48.37Z" fill="black"/>
<path d="M677.33 39.28V36.28H666.15C665.97 37.28 665.24 38.31 664.42 39.28H677.33Z" fill="black"/>
<path d="M412.69 36.28H368.58V39.28H404.17C406.6 37.62 408.51 36.42 408.99 36.41C409.55 36.39 410.93 36.34 412.7 36.28H412.69Z" fill="black"/>
<path d="M685.4 27.1899V24.1899H669.2C668.51 25.1099 667.71 26.1399 667.07 27.1899H685.4Z" fill="black"/>
<path d="M508.88 24.6199C509.41 24.5099 510.14 24.3599 511.01 24.1899H368.57V27.1899H489.54C496.99 26.2199 504.32 25.2799 506.9 24.9499C507.56 24.8599 508.21 24.7599 508.87 24.6199H508.88Z" fill="black"/>
<path d="M631.37 13.68C631.61 13.17 631.81 12.64 631.97 12.1H630.45C630.77 12.6 631.08 13.12 631.37 13.68Z" fill="black"/>
<path d="M693.46 15.1V12.1H668.54C669.11 13 669.67 14.02 670.11 15.1H693.46Z" fill="black"/>
<path d="M368.58 12.1V15.1H592.47C593.07 14.16 593.55 13.15 593.87 12.1H368.57H368.58Z" fill="black"/>
<path d="M599.93 1.28H621.45C622.35 1.28 623.19 1.72 623.71 2.46L624.09 3H636.12C636.91 2.16 637.77 1.28 638.02 1.28H659.54C660.44 1.28 661.28 1.72 661.8 2.46L662.18 3H701.52V0H368.57V3H598.02C598.81 2.16 599.67 1.28 599.92 1.28H599.93Z" fill="black"/>
<path d="M659.55 1.28003H638.03C637.78 1.28003 636.91 2.16003 636.13 3.00003H662.2L661.82 2.46003C661.3 1.72003 660.46 1.28003 659.56 1.28003H659.55Z" fill="black"/>
<path d="M623.72 2.46003C623.2 1.72003 622.36 1.28003 621.46 1.28003H599.94C599.69 1.28003 598.82 2.16003 598.04 3.00003H624.11L623.73 2.46003H623.72Z" fill="black"/>
<path d="M598.02 48.37H602.72C600.95 47.79 598.97 47.42 598.02 48.37Z" fill="#333333"/>
<path d="M500.09 44.47C483.06 45.04 424.23 47.02 421.45 47.27C419.6 47.43 417.73 47.89 415.89 48.38H517.58C514.73 47.42 511.64 46.45 509.19 45.69C506.24 44.78 503.17 44.37 500.08 44.47H500.09Z" fill="#333333"/>
<path d="M569.91 87.65H494.36C492.29 89.99 490.98 91.45 490.95 91.48C489.12 92.9 487.38 94.42 485.72 96.02H562.67C564.95 93.38 567.41 90.55 569.92 87.65H569.91Z" fill="#333333"/>
<path d="M488 171.56H436.95C435.96 172.76 435.19 173.68 434.77 174.2C433.95 175.19 433.73 175.7 432.54 175.93C431.43 176.14 404.98 173.73 383.99 178.12C379.48 178.95 344.46 180.18 341.22 180.18C339.07 180.18 336.79 179.75 334.92 180.66H473.53L488.02 171.57H488V171.56Z" fill="#333333"/>
<path d="M507.27 159.47H446.95C444.25 162.74 441.6 165.94 439.43 168.56H492.78L507.27 159.47Z" fill="#333333"/>
<path d="M296.08 221.78C296.08 223.77 298.12 225.11 299.94 224.32C303 223 307.6 221.05 312.78 218.89H296.08V221.78Z" fill="#333333"/>
<path d="M550.07 168.56H614.7C613.84 165.33 613.14 162.66 612.64 160.75C612.52 160.31 612.37 159.88 612.19 159.47H519.56C526.62 161.57 538.45 165.1 550.08 168.56H550.07Z" fill="#333333"/>
<path d="M588.62 203.96H624.07C623.27 200.95 622.48 197.96 621.7 195.03H586.49C587.15 198.21 587.89 201.35 588.61 203.96H588.62Z" fill="#333333"/>
<path d="M560.07 99.02H482.78C480.18 101.85 477.82 104.89 475.74 108.11H552.23C554.11 105.92 556.85 102.74 560.07 99.02Z" fill="#333333"/>
<path d="M584.76 184.75C585.02 186.92 585.43 189.43 585.91 192.02H620.91C620.15 189.14 619.4 186.34 618.69 183.65H584.54C584.63 184.01 584.71 184.37 584.76 184.75Z" fill="#333333"/>
<path d="M578.17 176.94C580.28 177.57 582.03 178.91 583.21 180.65H617.9C617.03 177.37 616.22 174.31 615.49 171.56H560.13C567.3 173.7 573.77 175.63 578.16 176.94H578.17Z" fill="#333333"/>
<path d="M590.65 209.8C591.68 211.7 592.85 213.82 594.04 215.89H627.23C626.45 212.94 625.66 209.95 624.86 206.96H589.51C589.92 208.19 590.3 209.17 590.64 209.8H590.65Z" fill="#333333"/>
<path d="M421.45 47.26C424.23 47.02 483.06 45.04 500.09 44.46C503.18 44.36 506.24 44.77 509.2 45.68C511.64 46.43 514.74 47.41 517.59 48.37H598.03C598.98 47.42 600.96 47.79 602.73 48.37H617.83C620.3 45.9 623.19 42.97 624.17 41.74C624.73 41.03 625.58 40.18 626.34 39.28H404.18C400.04 42.11 394.39 46.31 391.71 48.37H415.9C417.74 47.88 419.6 47.42 421.46 47.26H421.45Z" fill="#333333"/>
<path d="M551.2 114.8C549.43 113.55 549.29 113.4 549.52 111.33C549.52 111.32 549.58 111.24 549.68 111.11H473.9C472.23 114.02 470.78 117.06 469.55 120.2H558.84C555.49 117.84 552.81 115.95 551.18 114.8H551.2Z" fill="#333333"/>
<path d="M631.98 22.95C633.5 20.59 633.08 17.67 632.02 15.09H592.48C591.44 16.72 590.03 18.12 588.44 19.04C586.73 20.04 585.03 20.49 583.31 20.61C580.46 20.81 577.56 20.12 574.42 19.57C571.82 19.12 569.24 18.6 566.65 18.07C563.26 17.38 559.8 17.05 556.34 17.06C552.62 17.08 549.28 17.03 545.55 17.12C541.97 17.21 536.22 18.15 532.79 19.19C528.11 20.61 516.57 23.04 511 24.18H631.09C631.42 23.74 631.72 23.32 631.96 22.95H631.98Z" fill="#333333"/>
<path d="M580.28 135.29H464.46C463.69 137.76 462.85 140.18 461.2 142.21C460.9 142.58 460.27 143.34 459.41 144.39H593.18C589.1 141.52 584.69 138.41 580.28 135.3V135.29Z" fill="#333333"/>
<path d="M563.12 123.2H468.48C467.16 127.11 466 130.56 465.41 132.29H576.02C571.45 129.07 567.01 125.94 563.12 123.2Z" fill="#333333"/>
<path d="M596.98 56.2C597.47 55.61 597.58 53.25 597.6 51.38H525.28C525.65 51.6 525.83 51.78 525.77 51.9C525.68 52.1 522.61 55.62 518.35 60.47H593.36C594.91 58.66 596.15 57.19 596.97 56.2H596.98Z" fill="#333333"/>
<path d="M629.99 11.4C628.96 9.94 627.94 8.47 626.91 7.01L624.1 3H598.03C597.42 3.66 596.86 4.29 596.67 4.46C594.91 6.16 594.42 7.19 594.32 9.57C594.29 10.42 594.12 11.26 593.87 12.09H630.45C630.3 11.85 630.14 11.62 629.99 11.4Z" fill="#333333"/>
<path d="M611.6 51.52C612.56 51.86 613.59 51.79 614.47 51.37H611.16C611.31 51.42 611.46 51.47 611.59 51.52H611.6Z" fill="#333333"/>
<path d="M608.99 155.51C606.45 153.72 602.34 150.82 597.44 147.38H456.94C454.83 149.94 452.18 153.15 449.43 156.47H610.14C609.79 156.12 609.41 155.8 608.99 155.51Z" fill="#333333"/>
<path d="M628.08 36.2299C628.38 34.4299 627.95 32.2499 627.87 30.4299C627.83 29.3999 628.31 28.2899 628.98 27.1899H489.55C482.24 28.1399 474.79 29.1199 471.58 29.5799C465.85 30.3999 440.85 35.3199 437.4 35.4399C433.76 35.5599 430.12 35.6799 426.48 35.8099C423.72 35.8999 417.03 36.1399 412.69 36.2899H628.06C628.06 36.2899 628.07 36.2599 628.07 36.2399H628.08V36.2299Z" fill="#333333"/>
<path d="M644.1 259.24C641.76 258.29 639.78 256.69 638.36 254.68H611.56C612.73 257.77 613.88 260.81 614.95 263.61H654.95C651.42 262.21 647.36 260.56 644.1 259.24Z" fill="#333333"/>
<path d="M341.61 206.96H306.82L297.37 215.89H319.99C327.88 212.61 336.03 209.25 341.61 206.96Z" fill="#333333"/>
<path d="M679.37 274.9L678.87 273.15C678.83 273 678.76 272.84 678.64 272.73C677.95 272.09 676.33 271.7 675.54 271.36C671.34 269.59 667.02 268.17 662.74 266.61H616.11C617.54 270.31 618.77 273.44 619.66 275.54H679.47C679.47 275.33 679.43 275.11 679.37 274.89V274.9Z" fill="#333333"/>
<path d="M636.41 250.51C635.84 248.36 635.14 245.74 634.35 242.75H607.02C608.13 245.64 609.28 248.66 610.43 251.68H636.8C636.66 251.3 636.52 250.91 636.42 250.51H636.41Z" fill="#333333"/>
<path d="M631.19 230.82H602.31C603.35 233.35 604.57 236.41 605.86 239.75H633.56C632.83 236.99 632.03 233.99 631.19 230.82Z" fill="#333333"/>
<path d="M628.03 218.89H595.8C597.01 220.91 598.19 222.76 599.2 224.16C599.6 224.71 600.23 226 601.03 227.82H630.39C629.63 224.94 628.83 221.95 628.02 218.89H628.03Z" fill="#333333"/>
<path d="M580.38 75.55H505.06C502.13 78.87 499.34 82.02 497.02 84.64H572.51C575.15 81.59 577.82 78.51 580.38 75.55Z" fill="#333333"/>
<path d="M424.38 201.95C433.52 201.83 442.47 199.43 450.45 195.02H319.44C318.8 195.63 318.16 196.23 317.52 196.84L310 203.95H349.4C356.41 202.99 400.42 202.27 424.39 201.95H424.38Z" fill="#333333"/>
<path d="M468.73 183.66H331.43C328.49 186.45 325.55 189.24 322.6 192.03H455.4L468.74 183.66H468.73Z" fill="#333333"/>
<path d="M590.8 63.46H515.72C513.21 66.32 510.45 69.44 507.7 72.55H582.96C585.84 69.22 588.51 66.11 590.79 63.46H590.8Z" fill="#333333"/>
<path d="M538.18 44.47C521.15 45.04 462.32 47.02 459.54 47.27C457.69 47.43 455.82 47.89 453.98 48.38H555.67C552.82 47.42 549.73 46.45 547.28 45.69C544.33 44.78 541.26 44.37 538.17 44.47H538.18Z" fill="#1A1A1A"/>
<path d="M636.11 48.37H640.81C639.04 47.79 637.06 47.42 636.11 48.37Z" fill="#1A1A1A"/>
<path d="M647.08 155.51C644.54 153.72 640.43 150.82 635.53 147.38H495.03C492.92 149.94 490.27 153.15 487.52 156.47H648.23C647.88 156.12 647.5 155.8 647.08 155.51Z" fill="#1A1A1A"/>
<path d="M626.72 203.96H662.17C661.37 200.95 660.58 197.96 659.8 195.03H624.59C625.25 198.21 625.99 201.35 626.71 203.96H626.72Z" fill="#1A1A1A"/>
<path d="M628.74 209.8C629.77 211.7 630.94 213.82 632.13 215.89H665.32C664.54 212.94 663.75 209.95 662.95 206.96H627.6C628.01 208.19 628.39 209.17 628.73 209.8H628.74Z" fill="#1A1A1A"/>
<path d="M616.26 176.94C618.37 177.57 620.12 178.91 621.3 180.65H655.99C655.12 177.37 654.31 174.31 653.58 171.56H598.22C605.39 173.7 611.86 175.63 616.25 176.94H616.26Z" fill="#1A1A1A"/>
<path d="M588.17 168.56H652.8C651.94 165.33 651.24 162.66 650.74 160.75C650.62 160.31 650.47 159.88 650.29 159.47H557.66C564.72 161.57 576.55 165.1 588.18 168.56H588.17Z" fill="#1A1A1A"/>
<path d="M622.85 184.75C623.11 186.92 623.52 189.43 624 192.02H659C658.24 189.14 657.49 186.34 656.78 183.65H622.63C622.72 184.01 622.8 184.37 622.85 184.75Z" fill="#1A1A1A"/>
<path d="M618.37 135.29H502.55C501.78 137.76 500.94 140.18 499.29 142.21C498.99 142.58 498.36 143.34 497.5 144.39H631.27C627.19 141.52 622.78 138.41 618.37 135.3V135.29Z" fill="#1A1A1A"/>
<path d="M334.17 221.78C334.17 223.77 336.21 225.11 338.03 224.32C341.09 223 345.69 221.05 350.87 218.89H334.17V221.78Z" fill="#1A1A1A"/>
<path d="M666.17 36.2299C666.47 34.4299 666.04 32.2499 665.96 30.4299C665.92 29.3999 666.4 28.2899 667.07 27.1899H527.64C520.33 28.1399 512.88 29.1199 509.67 29.5799C503.94 30.3999 478.94 35.3199 475.49 35.4399C471.85 35.5599 468.21 35.6799 464.57 35.8099C461.81 35.8999 455.12 36.1399 450.78 36.2899H666.15C666.15 36.2899 666.16 36.2599 666.16 36.2399H666.17V36.2299Z" fill="#1A1A1A"/>
<path d="M649.69 51.52C650.65 51.86 651.68 51.79 652.56 51.37H649.25C649.4 51.42 649.55 51.47 649.68 51.52H649.69Z" fill="#1A1A1A"/>
<path d="M670.07 22.95C671.59 20.59 671.17 17.67 670.11 15.09H630.57C629.53 16.72 628.12 18.12 626.53 19.04C624.82 20.04 623.12 20.49 621.4 20.61C618.55 20.81 615.65 20.12 612.51 19.57C609.91 19.12 607.33 18.6 604.74 18.07C601.35 17.38 597.89 17.05 594.43 17.06C590.71 17.08 587.37 17.03 583.64 17.12C580.06 17.21 574.31 18.15 570.88 19.19C566.2 20.61 554.66 23.04 549.09 24.18H669.18C669.51 23.74 669.81 23.32 670.05 22.95H670.07Z" fill="#1A1A1A"/>
<path d="M545.36 159.47H485.04C482.34 162.74 479.69 165.94 477.52 168.56H530.87L545.36 159.47Z" fill="#1A1A1A"/>
<path d="M668.08 11.4C667.05 9.94 666.03 8.47 665 7.01L662.19 3H636.12C635.51 3.66 634.95 4.29 634.76 4.46C633 6.16 632.51 7.19 632.41 9.57C632.38 10.42 632.21 11.26 631.96 12.09H668.54C668.39 11.85 668.23 11.62 668.08 11.4Z" fill="#1A1A1A"/>
<path d="M459.54 47.26C462.32 47.02 521.15 45.04 538.18 44.46C541.27 44.36 544.33 44.77 547.29 45.68C549.73 46.43 552.83 47.41 555.68 48.37H636.12C637.07 47.42 639.05 47.79 640.82 48.37H655.92C658.39 45.9 661.28 42.97 662.26 41.74C662.82 41.03 663.67 40.18 664.43 39.28H442.27C438.13 42.11 432.48 46.31 429.8 48.37H453.99C455.83 47.88 457.69 47.42 459.55 47.26H459.54Z" fill="#1A1A1A"/>
<path d="M618.47 75.55H543.15C540.22 78.87 537.43 82.02 535.11 84.64H610.6C613.24 81.59 615.91 78.51 618.47 75.55Z" fill="#1A1A1A"/>
<path d="M598.16 99.02H520.87C518.27 101.85 515.91 104.89 513.83 108.11H590.32C592.2 105.92 594.94 102.74 598.16 99.02Z" fill="#1A1A1A"/>
<path d="M589.3 114.8C587.53 113.55 587.39 113.4 587.62 111.33C587.62 111.32 587.68 111.24 587.78 111.11H512C510.33 114.02 508.88 117.06 507.65 120.2H596.94C593.59 117.84 590.91 115.95 589.28 114.8H589.3Z" fill="#1A1A1A"/>
<path d="M601.21 123.2H506.57C505.25 127.11 504.09 130.56 503.5 132.29H614.11C609.54 129.07 605.1 125.94 601.21 123.2Z" fill="#1A1A1A"/>
<path d="M635.07 56.2C635.56 55.61 635.67 53.25 635.69 51.38H563.37C563.74 51.6 563.92 51.78 563.86 51.9C563.77 52.1 560.7 55.62 556.44 60.47H631.45C633 58.66 634.24 57.19 635.06 56.2H635.07Z" fill="#1A1A1A"/>
<path d="M608 87.65H532.45C530.38 89.99 529.07 91.45 529.04 91.48C527.21 92.9 525.47 94.42 523.81 96.02H600.76C603.04 93.38 605.5 90.55 608.01 87.65H608Z" fill="#1A1A1A"/>
<path d="M628.89 63.46H553.81C551.3 66.32 548.54 69.44 545.79 72.55H621.05C623.93 69.22 626.6 66.11 628.88 63.46H628.89Z" fill="#1A1A1A"/>
<path d="M506.83 183.66H369.53C366.59 186.45 363.65 189.24 360.7 192.03H493.5L506.84 183.66H506.83Z" fill="#1A1A1A"/>
<path d="M666.12 218.89H633.89C635.1 220.91 636.28 222.76 637.29 224.16C637.69 224.71 638.32 226 639.12 227.82H668.48C667.72 224.94 666.92 221.95 666.11 218.89H666.12Z" fill="#1A1A1A"/>
<path d="M717.47 274.9L716.97 273.15C716.93 273 716.86 272.84 716.74 272.73C716.05 272.09 714.43 271.7 713.64 271.36C709.44 269.59 705.12 268.17 700.84 266.61H654.21C655.64 270.31 656.87 273.44 657.76 275.54H710.22V278.39H714.84C716.66 278.39 717.98 276.64 717.47 274.89V274.9Z" fill="#1A1A1A"/>
<path d="M379.7 206.96H344.91L335.46 215.89H358.08C365.97 212.61 374.12 209.25 379.7 206.96Z" fill="#1A1A1A"/>
<path d="M462.47 201.95C471.61 201.83 480.56 199.43 488.54 195.02H357.53C356.89 195.63 356.25 196.23 355.61 196.84L348.09 203.95H387.49C394.5 202.99 438.51 202.27 462.48 201.95H462.47Z" fill="#1A1A1A"/>
<path d="M669.29 230.82H640.41C641.45 233.35 642.67 236.41 643.96 239.75H671.66C670.93 236.99 670.13 233.99 669.29 230.82Z" fill="#1A1A1A"/>
<path d="M526.09 171.56H475.04C474.05 172.76 473.28 173.68 472.86 174.2C472.04 175.19 471.82 175.7 470.63 175.93C469.52 176.14 443.07 173.73 422.08 178.12C417.57 178.95 382.55 180.18 379.31 180.18C377.16 180.18 374.88 179.75 373.01 180.66H511.62L526.11 171.57H526.09V171.56Z" fill="#1A1A1A"/>
<path d="M682.2 259.24C679.86 258.29 677.88 256.69 676.46 254.68H649.66C650.83 257.77 651.98 260.81 653.05 263.61H693.05C689.52 262.21 685.46 260.56 682.2 259.24Z" fill="#1A1A1A"/>
<path d="M674.51 250.51C673.94 248.36 673.24 245.74 672.45 242.75H645.12C646.23 245.64 647.38 248.66 648.53 251.68H674.9C674.76 251.3 674.62 250.91 674.52 250.51H674.51Z" fill="#1A1A1A"/>
<path d="M662.45 19.42C664.18 19.3 665.88 18.85 667.6 17.84C670.83 15.95 673.35 12.12 673.5 8.33001C673.6 5.94001 674.08 4.90001 675.86 3.20001C676.27 2.80001 678.69 0.0100098 679.14 0.0100098H700.76C701.66 0.0100098 702.51 0.45001 703.03 1.20001L706.23 5.77001C707.26 7.24001 708.29 8.71001 709.32 10.18C711.44 13.19 713.65 18.15 711.32 21.78C710.04 23.78 707.09 26.81 707.19 29.29C707.27 31.12 707.69 33.31 707.4 35.12C707.08 37.06 704.65 39.16 703.46 40.65C702.14 42.31 697.37 47.06 694.78 49.61C693.75 50.63 692.22 50.97 690.84 50.48C689.02 49.84 686.5 48.95 684.9 48.42C683.26 47.87 677.9 45.25 676.8 47.88C676.72 48.08 676.98 54.18 676.15 55.18C668.81 64.02 628.52 110.21 628.48 110.56C628.25 112.64 628.38 112.79 630.16 114.05C638.83 120.18 677.45 147.37 688.21 154.96C690.02 156.24 691.3 158.09 691.88 160.22C695.65 174.5 710.71 231.3 715.77 250.39C716.82 254.37 719.68 257.61 723.5 259.16C728.88 261.35 736.46 264.4 740.21 265.83C745.15 267.71 750.21 269.29 755.08 271.34C755.88 271.67 757.5 272.07 758.19 272.72C758.31 272.83 758.38 272.98 758.42 273.14L758.92 274.9C759.42 276.66 758.11 278.42 756.28 278.42H700.41C699.19 278.42 681.56 228.33 678.39 223.93C675.88 220.45 672.39 214.31 669.79 209.5C667.97 206.13 664.89 192.72 663.87 184.34C663.42 180.63 660.83 177.56 657.25 176.49C640.63 171.54 594.61 157.81 591.98 157.04C591.89 157.01 591.7 156.94 591.47 156.85C590.65 156.53 589.71 156.62 588.97 157.1L531.6 193.11C522.95 198.53 512.97 201.49 502.77 201.62C477.32 201.96 429.36 202.76 426.6 203.8C425.33 204.28 389.73 218.91 377.77 224.09C375.93 224.88 373.89 223.54 373.89 221.54V218.04C373.89 217.28 374.2 216.54 374.76 216.02L395.43 196.48C400.88 191.34 406.32 186.19 411.73 181.03C413.76 179.09 416.6 179.73 419.22 179.73C422.49 179.73 457.67 178.5 462.19 177.66C483.27 173.26 509.85 175.67 510.96 175.46C512.16 175.24 512.38 174.73 513.2 173.72C516.32 169.94 537.47 144.38 539.75 141.58C542.03 138.78 542.78 135.18 543.94 131.74C544.52 130.01 545.74 126.4 547.12 122.31C551.36 109.77 559.19 98.75 569.63 90.62C569.8 90.47 604.3 51.52 604.62 50.86C605.02 50.02 594.31 46.58 587.96 44.62C585 43.71 581.91 43.29 578.81 43.39C561.7 43.96 502.6 45.95 499.81 46.2C497.02 46.45 494.13 47.38 491.4 48.06C487.66 48.8 484.11 49.74 480.29 49.93C475.79 50.15 471.32 49.93 466.82 49.93C467.19 49.93 468.24 48.68 468.5 48.44C469.91 47.19 485.77 35.34 487.3 35.28C489.25 35.21 500.97 34.81 504.88 34.67C508.54 34.55 512.19 34.42 515.85 34.3C519.32 34.18 544.43 29.25 550.19 28.41C556.71 27.48 580.54 24.41 585.68 23.76C586.34 23.67 587 23.57 587.66 23.43C591.62 22.63 606.26 19.62 611.69 17.97C615.14 16.93 620.91 15.98 624.51 15.89C628.11 15.8 631.61 15.85 635.35 15.83C638.83 15.81 642.3 16.15 645.71 16.84C648.31 17.36 650.9 17.89 653.52 18.35C656.67 18.9 659.59 19.6 662.45 19.39V19.42Z" fill="black"/>
<path d="M80.16 42.55C81.61 56.4 78.73 67.38 71.53 75.51C64.33 83.64 54.89 87.7 43.22 87.7C31.55 87.7 21.63 83.62 12.98 75.45C4.33 67.28 0 57 0 44.6C0 32.2 4.33 21.92 12.98 13.75C21.63 5.58 31.71 1.5 43.22 1.5C49.34 1.5 54.87 2.63 59.82 4.88C64.77 7.13 68.82 10.07 71.95 13.69L62.05 24.56C60.12 22.31 57.48 20.46 54.14 19.01C50.8 17.56 47.16 16.84 43.21 16.84C36.21 16.84 30.15 19.5 25.04 24.81C19.93 30.12 17.37 36.68 17.37 44.49C17.37 52.3 19.95 58.9 25.1 64.29C30.25 69.68 36.29 72.38 43.21 72.38C49.09 72.38 53.93 70.87 57.76 67.85C61.58 64.83 63.98 60.47 64.94 54.75H49.24V42.56H80.16V42.55Z" fill="#000000"/>
<path d="M156.1 86.86H138.71L118.43 55.71H109.13V86.86H93.19V2.34998H122.29C131.79 2.34998 139.31 4.84998 144.87 9.83998C150.42 14.83 153.2 21.23 153.2 29.04C153.2 35 151.53 40.19 148.19 44.62C144.85 49.05 140.16 52.19 134.12 54.04L156.09 86.88V86.86H156.1ZM109.13 16.35V41.58H121.69C126.52 41.58 130.32 40.49 133.1 38.32C135.88 36.15 137.27 33.05 137.27 29.02C137.27 24.99 135.88 21.88 133.1 19.66C130.32 17.45 126.52 16.34 121.69 16.34H109.13V16.35Z" fill="#000000"/>
<path d="M183.87 72.98H222.75V86.86H167.57V2.34998H221.54V16.23H183.87V38.32H209.47V52.2H183.87V72.97V72.98Z" fill="#000000"/>
<path d="M295.19 86.86L287.58 70.08H253.77L246.16 86.86H228.77L269.34 2.33997H271.88L312.45 86.86H295.18H295.19ZM259.69 56.92H281.66L270.67 32.65L259.68 56.92H259.69Z" fill="#000000"/>
<path d="M364.37 2.34997V16.36H343V86.87H326.1V16.35H304.73V2.33997H364.37V2.34997Z" fill="#000000"/>
<path d="M66.52 179.27H49.13L28.85 148.12H19.55V179.27H3.61V94.75H32.71C42.21 94.75 49.73 97.25 55.29 102.24C60.84 107.23 63.62 113.63 63.62 121.44C63.62 127.4 61.95 132.59 58.61 137.01C55.27 141.44 50.58 144.58 44.54 146.43L66.51 179.27H66.52ZM19.55 108.76V133.99H32.11C36.94 133.99 40.74 132.9 43.52 130.73C46.3 128.56 47.69 125.46 47.69 121.43C47.69 117.4 46.3 114.29 43.52 112.07C40.74 109.86 36.94 108.75 32.11 108.75H19.55V108.76Z" fill="#000000"/>
<path d="M95.85 94.75V179.27H79.67V94.75H95.85Z" fill="#000000"/>
<path d="M164.43 108.64H126.88V130.61H158.75V144.74H126.88V179.27H110.7V94.75H164.43V108.63V108.64Z" fill="#000000"/>
<path d="M234.82 94.75V108.76H213.45V179.27H196.55V108.76H175.18V94.75H234.82Z" fill="#000000"/>
<path d="M66.52 277.73H49.13L28.85 246.58H19.55V277.73H3.61V193.22H32.71C42.21 193.22 49.73 195.72 55.29 200.71C60.84 205.7 63.62 212.1 63.62 219.91C63.62 225.87 61.95 231.06 58.61 235.48C55.27 239.91 50.58 243.05 44.54 244.9L66.51 277.74L66.52 277.73ZM19.55 207.22V232.45H32.11C36.94 232.45 40.74 231.36 43.52 229.19C46.3 227.02 47.69 223.92 47.69 219.89C47.69 215.86 46.3 212.75 43.52 210.53C40.74 208.32 36.94 207.21 32.11 207.21H19.55V207.22Z" fill="#000000"/>
<path d="M146.93 193.22V246.83C146.93 256.41 143.63 264.09 137.03 269.89C130.43 275.68 122.46 278.58 113.12 278.58C103.78 278.58 95.69 275.68 89.09 269.89C82.49 264.09 79.19 256.41 79.19 246.83V193.22H94.64V246.83C94.64 252.95 96.47 257.54 100.13 260.59C103.79 263.65 108.12 265.18 113.11 265.18C118.1 265.18 122.41 263.65 126.03 260.59C129.65 257.53 131.46 252.94 131.46 246.83V193.22H146.93Z" fill="#000000"/>
<path d="M231.2 193.22V277.73H216.11L179.16 220.86V277.73H163.22V193.22H178.31L215.26 249.97V193.22H231.2Z" fill="#000000"/>
</g>
<defs>
<clipPath id="clip0_152_41">
<rect width="759.03" height="278.58" fill="#000000"/>
</clipPath>
</defs>
</svg>
